<svg width="638" height="176" viewBox="0 0 638 176" fill="none" xmlns="http://www.w3.org/2000/svg">
<path opacity="0.8" d="M0.41477 -49.2395L0 -17.0774C0 -17.0774 61.1925 -29.3217 136.589 5.08942C174.84 22.5331 213.837 57.5065 247.365 119.132C319.936 252.51 366.841 117.524 431.578 56.4217C454.93 34.3541 480.945 21.7856 511.403 37.1721C586.098 74.9238 615.754 61.1249 628.262 47.3327C634.765 40.1621 636.631 32.9914 637.788 33.0576L638 16.2952C638 16.2952 629.875 83.3844 508.499 12.8753C455.685 -17.7918 416.863 29.7236 381.598 77.2325C335.807 138.937 295.999 200.635 239.272 91.1239C174.563 -33.7802 94.0469 -56 44.9796 -56C17.9135 -56 0.41477 -49.2395 0.41477 -49.2395Z" fill="#EEF0EE"/>
</svg>
