<svg width="1440" height="487" viewBox="0 0 1440 487" fill="none" xmlns="http://www.w3.org/2000/svg">
<path opacity="0.8" d="M-264.718 14.1913L-266 81.7039C-266 81.7039 -76.8596 56.0013 156.183 128.235C274.413 164.852 394.951 238.266 498.581 367.626C722.892 647.604 867.874 364.251 1067.97 235.989C1140.15 189.666 1220.56 163.283 1314.7 195.581C1545.58 274.827 1637.24 245.861 1675.9 216.91C1696 201.857 1701.77 186.805 1705.34 186.944L1706 151.758C1706 151.758 1680.89 292.587 1305.73 144.579C1142.48 80.2043 1022.48 179.946 913.485 279.673C771.95 409.2 648.905 538.712 473.568 308.833C273.559 46.6423 24.6904 0 -126.972 0C-210.631 0 -264.718 14.1913 -264.718 14.1913Z" fill="#EEF0EE"/>
</svg>
