<svg width="223" height="199" viewBox="0 0 223 199" fill="none" xmlns="http://www.w3.org/2000/svg">
<path d="M100.144 171.216L99.65 169.448L99.7696 169.458C99.9498 169.861 100.183 170.195 100.468 170.46C100.74 170.724 101.076 170.872 101.474 170.906L105.919 171.279L106.481 164.583L103.831 164.36C103.445 164.328 103.112 164.387 102.832 164.537C102.538 164.7 102.351 164.925 102.274 165.213L102.471 162.861C102.5 163.158 102.646 163.404 102.911 163.6C103.161 163.809 103.479 163.929 103.864 163.961L106.515 164.184L107.079 157.468L102.376 157.073C101.99 157.04 101.641 157.131 101.329 157.346C101.002 157.573 100.716 157.87 100.471 158.237L100.352 158.227L101.114 156.565L110.52 157.356C110.225 157.371 109.979 157.511 109.783 157.775C109.573 158.039 109.452 158.363 109.42 158.748L108.439 170.427C108.406 170.812 108.472 171.146 108.636 171.427C108.785 171.721 109.004 171.906 109.292 171.984L100.144 171.216Z" fill="#00494A"/>
<path d="M90.893 159.058L91.5705 163.569C91.637 163.988 91.7968 164.361 92.0499 164.689C92.2861 165.025 92.5258 165.249 92.7689 165.362L88.6124 163.918C88.873 163.981 89.1016 163.912 89.2981 163.712C89.4901 163.524 89.5549 163.236 89.4922 162.848L88.9425 159.248C88.4985 159.348 88.0545 159.448 87.6105 159.548C87.1539 159.643 86.7392 159.761 86.3664 159.899C85.9767 160.046 85.6436 160.213 85.3672 160.399C85.0908 160.586 84.9044 160.817 84.8082 161.094C84.7164 161.359 84.713 161.633 84.798 161.916C84.883 162.2 85.0901 162.498 85.4194 162.81L84.0213 162.324C83.9933 162.202 83.9844 162.064 83.9948 161.913C83.9925 161.757 84.0263 161.578 84.0963 161.376C84.245 160.948 84.4918 160.603 84.8366 160.342C85.177 160.093 85.5739 159.885 86.0271 159.718C86.4634 159.559 86.9331 159.426 87.4363 159.318C87.935 159.223 88.4234 159.117 88.9013 159.001L88.1776 154.134C88.1155 153.704 87.9642 153.326 87.7236 153.003C87.4705 152.675 87.2245 152.449 86.9857 152.323L91.1234 153.76C90.8584 153.71 90.6361 153.781 90.4566 153.973C90.2601 154.173 90.1932 154.467 90.2559 154.856L90.8518 158.81C91.3128 158.702 91.7822 158.59 92.2601 158.474C92.7255 158.353 93.17 158.211 93.5937 158.047C94.0004 157.892 94.3549 157.705 94.657 157.485C94.9591 157.265 95.1626 157.004 95.2676 156.702C95.3595 156.438 95.3629 156.164 95.2778 155.88C95.1885 155.609 94.9813 155.311 94.6565 154.987L96.0546 155.472C96.0826 155.595 96.0977 155.734 96.1 155.89C96.0897 156.042 96.0473 156.225 95.973 156.439C95.8112 156.905 95.5472 157.279 95.181 157.561C94.8023 157.839 94.3778 158.066 93.9075 158.241C93.4203 158.425 92.9167 158.575 92.3966 158.69C91.8639 158.802 91.3627 158.924 90.893 159.058Z" fill="#00494A"/>
<path d="M77.1624 158.926L74.6314 157.278L75.2642 156.306C74.9493 156.594 74.5758 156.765 74.1437 156.818C73.7004 156.863 73.2832 156.759 72.8921 156.504C72.501 156.25 72.1605 155.893 71.8707 155.434C71.5697 154.967 71.3624 154.443 71.2487 153.859C71.1278 153.288 71.1192 152.677 71.223 152.029C71.3268 151.381 71.5788 150.749 71.9788 150.135C72.4152 149.464 72.8683 148.964 73.338 148.633C73.7966 148.295 74.2693 148.07 74.7563 147.957C75.2359 147.856 75.7295 147.843 76.237 147.919C76.726 147.999 77.2192 148.121 77.7166 148.285C78.0284 148.393 78.3271 148.484 78.6127 148.558C78.891 148.644 79.156 148.689 79.4075 148.694C79.6517 148.71 79.8787 148.667 80.0884 148.564C80.2981 148.462 80.4902 148.277 80.6647 148.009L81.603 146.567C81.7921 146.277 81.8851 145.987 81.8819 145.699C81.8788 145.41 81.7763 145.177 81.5747 144.998L84.8433 147.125C84.5979 147.013 84.3428 147.014 84.0778 147.128C83.8127 147.242 83.5857 147.444 83.3966 147.735L77.1341 157.356C76.945 157.647 76.852 157.936 76.8552 158.225C76.8511 158.524 76.9535 158.758 77.1624 158.926ZM75.9297 155.284L80.1192 148.847C79.8872 148.935 79.6546 148.974 79.4216 148.966C79.1773 148.95 78.9328 148.91 78.688 148.846C78.4359 148.793 78.1912 148.729 77.9536 148.654C77.705 148.572 77.4582 148.499 77.2134 148.435C76.8686 148.354 76.5341 148.367 76.2098 148.474C75.8671 148.585 75.5475 148.783 75.2511 149.067C74.9362 149.355 74.6425 149.721 74.37 150.164C74.0864 150.6 73.8348 151.096 73.6153 151.653C73.3992 152.181 73.2293 152.699 73.1054 153.207C72.9816 153.715 72.9164 154.181 72.91 154.607C72.8924 155.025 72.9316 155.392 73.0276 155.709C73.1235 156.026 73.2832 156.258 73.5067 156.403C73.719 156.541 73.9471 156.594 74.1908 156.562C74.4272 156.541 74.6556 156.459 74.876 156.316C75.089 156.184 75.2906 156.021 75.4808 155.827C75.6637 155.643 75.8133 155.462 75.9297 155.284Z" fill="#00494A"/>
<path d="M67.8784 145.743C67.3267 146.266 66.731 146.675 66.0912 146.969C65.4423 147.253 64.8012 147.42 64.168 147.469C63.5159 147.517 62.9002 147.44 62.3209 147.235C61.732 147.04 61.2265 146.72 60.8046 146.275C60.3736 145.82 60.081 145.298 59.9271 144.71C59.7542 144.12 59.7141 143.506 59.8067 142.867C59.8805 142.228 60.0813 141.597 60.4093 140.974C60.728 140.341 61.1632 139.763 61.7148 139.24C62.2665 138.717 62.8668 138.314 63.5157 138.029C64.1555 137.735 64.8015 137.564 65.4535 137.515C66.0868 137.466 66.6979 137.539 67.2868 137.734C67.8666 137.92 68.372 138.24 68.8031 138.695C69.225 139.14 69.5175 139.662 69.6807 140.26C69.8438 140.859 69.8885 141.478 69.8148 142.117C69.7222 142.756 69.5165 143.392 69.1977 144.025C68.8698 144.648 68.43 145.221 67.8784 145.743ZM66.7539 143.888C67.1461 143.333 67.4722 142.776 67.7325 142.217C67.9927 141.658 68.1813 141.13 68.2984 140.633C68.4058 140.146 68.4411 139.708 68.4043 139.321C68.3487 138.932 68.2109 138.622 67.9907 138.39C67.9265 138.322 67.8758 138.278 67.8386 138.258C67.5411 138.1 67.1982 138.048 66.81 138.104C66.403 138.159 65.9792 138.312 65.5386 138.565C65.0888 138.807 64.6365 139.144 64.1816 139.575C63.7176 139.996 63.275 140.499 62.8538 141.082C62.4617 141.637 62.1355 142.194 61.8753 142.753C61.6059 143.302 61.4175 143.821 61.3101 144.308C61.193 144.805 61.1575 145.252 61.2034 145.649C61.2493 146.047 61.3778 146.357 61.5887 146.579C61.6529 146.647 61.7082 146.696 61.7546 146.725C62.0328 146.902 62.3754 146.963 62.7824 146.908C63.1706 146.853 63.5944 146.699 64.0539 146.447C64.4945 146.195 64.9517 145.854 65.4253 145.423C65.8899 144.983 66.3327 144.471 66.7539 143.888Z" fill="#00494A"/>
<path d="M49.1226 137.326L60.3109 130.172C60.603 129.986 60.8127 129.757 60.9399 129.485C61.0559 129.221 61.0589 128.966 60.949 128.72L63.0499 132.006C62.8726 131.802 62.6397 131.698 62.3513 131.693C62.0517 131.694 61.7558 131.788 61.4638 131.975L51.3706 138.429C51.0786 138.616 50.8745 138.841 50.7585 139.105C50.6313 139.376 50.6282 139.632 50.7494 139.871L49.1226 137.326Z" fill="#00494A"/>
<path d="M53.8538 126.64C53.1478 126.921 52.4431 127.08 51.7399 127.116C51.0318 127.14 50.3745 127.057 49.7682 126.868C49.1445 126.672 48.6014 126.372 48.1389 125.968C47.6641 125.568 47.3131 125.084 47.0861 124.514C46.8541 123.932 46.7756 123.339 46.8507 122.735C46.9084 122.123 47.0986 121.538 47.4212 120.979C47.7265 120.412 48.1468 119.9 48.6822 119.443C49.2127 118.973 49.8309 118.598 50.5369 118.316C51.243 118.035 51.95 117.882 52.6582 117.859C53.3614 117.822 54.0248 117.902 54.6485 118.099C55.2549 118.288 55.7955 118.582 56.2704 118.981C56.7403 119.368 57.0912 119.852 57.3232 120.435C57.5503 121.004 57.6287 121.597 57.5586 122.214C57.4885 122.83 57.3007 123.422 56.9955 123.988C56.6729 124.548 56.2463 125.062 55.7159 125.532C55.1805 125.989 54.5598 126.358 53.8538 126.64ZM53.4963 124.5C54.0662 124.129 54.5756 123.733 55.0243 123.31C55.473 122.887 55.8437 122.467 56.1364 122.049C56.4167 121.635 56.6116 121.242 56.721 120.868C56.8131 120.487 56.7999 120.148 56.6815 119.851C56.6469 119.764 56.616 119.705 56.5888 119.672C56.3713 119.415 56.0719 119.24 55.6908 119.147C55.2923 119.048 54.8417 119.034 54.339 119.105C53.8313 119.164 53.2864 119.309 52.7043 119.541C52.1172 119.761 51.5201 120.063 50.913 120.449C50.343 120.819 49.8337 121.216 49.385 121.639C48.9314 122.049 48.5644 122.461 48.2841 122.874C47.9914 123.292 47.7928 123.694 47.6883 124.08C47.5838 124.466 47.5883 124.802 47.7018 125.087C47.7364 125.173 47.7697 125.239 47.8019 125.284C47.9946 125.551 48.2903 125.735 48.6888 125.835C49.0699 125.927 49.5205 125.941 50.0406 125.877C50.5433 125.806 51.0944 125.658 51.6938 125.434C52.2884 125.197 52.8892 124.886 53.4963 124.5Z" fill="#00494A"/>
<path d="M54.4098 112.124C54.3261 111.868 54.1526 111.681 53.8894 111.563C53.613 111.447 53.3039 111.418 52.962 111.476L45.2702 112.77C44.9283 112.828 44.6524 112.955 44.4422 113.153C44.219 113.353 44.1163 113.587 44.1343 113.854L43.633 110.876L45.5461 110.554C45.1318 110.502 44.7721 110.414 44.4672 110.289C44.147 110.154 43.8848 110.002 43.6807 109.833C43.4612 109.654 43.2932 109.459 43.1767 109.249C43.0602 109.039 42.9853 108.835 42.9521 108.638C42.9056 108.362 42.9031 108.146 42.9445 107.99C42.9837 107.821 43.0273 107.679 43.0753 107.562L45.1068 107.22C44.8089 107.379 44.5978 107.61 44.4733 107.915C44.3335 108.209 44.2901 108.514 44.3432 108.83C44.3831 109.066 44.4744 109.287 44.6172 109.493C44.7469 109.701 44.939 109.879 45.1935 110.025C45.4458 110.158 45.7583 110.248 46.131 110.293C46.4905 110.341 46.9201 110.323 47.4198 110.238L52.6068 109.365C52.9487 109.308 53.2312 109.179 53.4545 108.979C53.6646 108.782 53.7672 108.548 53.7624 108.278L54.4098 112.124Z" fill="#00494A"/>
<path d="M47.7819 100.842C46.9428 100.804 46.1891 100.649 45.5207 100.379C44.853 100.094 44.2892 99.7282 43.8292 99.2801C43.3691 98.8319 43.0257 98.3157 42.7988 97.7314C42.5719 97.1471 42.4734 96.5286 42.5033 95.876C42.5307 95.2766 42.635 94.7475 42.8161 94.2886C42.9973 93.8297 43.2217 93.4462 43.4894 93.1382C43.7444 92.8161 44.0287 92.5822 44.3423 92.4364C44.6433 92.2766 44.9403 92.2035 45.2333 92.2169C45.7261 92.2394 46.1156 92.4774 46.4019 92.931C46.6748 93.3839 46.8596 94.1598 46.9561 95.2587C46.9984 95.7946 47.1366 96.2747 47.3708 96.6992C47.6049 97.1237 47.8964 97.464 48.245 97.7202C48.5937 97.9764 48.9802 98.1342 49.4046 98.1937C49.829 98.2531 50.2655 98.193 50.7142 98.0133C51.4106 97.6714 51.9701 97.2565 52.3928 96.7687C52.8028 96.2669 53.0203 95.7429 53.0453 95.1968C53.0599 94.8772 53.0064 94.5878 52.8848 94.3286C52.7505 94.0555 52.5744 93.8206 52.3565 93.6237C52.1258 93.413 51.8737 93.2346 51.6001 93.0886C51.3265 92.9426 51.0514 92.83 50.7747 92.7506L50.7893 92.4309C51.8173 92.7182 52.5443 93.1652 52.9703 93.7719C53.3831 94.3781 53.5684 95.1407 53.5264 96.0597C53.4923 96.8056 53.3211 97.4852 53.0127 98.0984C52.705 98.6983 52.2947 99.2067 51.7818 99.6237C51.2555 100.04 50.6536 100.36 49.9761 100.582C49.2858 100.791 48.5544 100.878 47.7819 100.842ZM49.2274 98.566C49.2813 98.5551 49.3488 98.5381 49.4299 98.5152C48.7912 98.4726 48.2231 98.1997 47.7256 97.6964C47.2153 97.1793 46.8849 96.5235 46.7344 95.7291C46.5718 94.9075 46.3237 94.3489 45.9902 94.0534C45.644 93.7439 45.2577 93.5794 44.8315 93.5599C44.6317 93.5508 44.4168 93.581 44.1867 93.6505C43.9572 93.7068 43.7386 93.8169 43.5309 93.9809C43.3238 94.1316 43.1542 94.3374 43.0222 94.5983C42.8768 94.8586 42.7953 95.1819 42.7776 95.5682C42.7514 96.1409 42.9281 96.6562 43.3076 97.114C43.6743 97.5579 44.1719 97.9143 44.8003 98.1833C45.4153 98.4517 46.1149 98.6238 46.8989 98.6997C47.6696 98.775 48.4458 98.7304 49.2274 98.566Z" fill="#00494A"/>
<path d="M56.4651 79.4155C56.5603 79.1352 56.5214 78.855 56.3483 78.5748C56.1812 78.2828 55.9246 78.0504 55.5787 77.8777L45.0926 72.643C44.7467 72.4703 44.4127 72.4079 44.0908 72.4558C43.7628 72.4858 43.5095 72.6201 43.3308 72.8587L44.8583 69.7988C45.7411 70.2395 46.5671 70.5401 47.3364 70.7006C48.1117 70.8492 48.8452 70.9024 49.5368 70.8602C50.2285 70.8181 50.8903 70.7014 51.5222 70.5101C52.1422 70.313 52.7384 70.089 53.3107 69.8382C53.8889 69.5755 54.4462 69.3098 54.9827 69.0411C55.5073 68.7665 56.0349 68.5306 56.5654 68.3335C57.0841 68.1304 57.6027 67.987 58.1215 67.9032C58.6461 67.8074 59.1768 67.819 59.7136 67.938L49.8896 63.0338C49.5437 62.8611 49.2097 62.7987 48.8878 62.8466C48.5598 62.8766 48.3035 63.0169 48.1188 63.2674L49.1818 61.138C49.0985 61.4243 49.1405 61.7135 49.3076 62.0055C49.4688 62.2797 49.7223 62.5032 50.0683 62.6759L60.5543 67.9106C60.9003 68.0833 61.2372 68.1546 61.5651 68.1246C61.899 68.0827 62.1494 67.9394 62.3162 67.6948L60.7887 70.7547C59.8939 70.3081 59.0471 70.0939 58.2481 70.1123C57.4491 70.1307 56.665 70.2684 55.896 70.5253C55.121 70.7643 54.3549 71.0748 53.5979 71.4569C52.8468 71.8271 52.0719 72.1555 51.273 72.4423C50.4622 72.723 49.6186 72.9054 48.7421 72.9895C47.8537 73.0676 46.9115 72.9399 45.9155 72.6067L55.7573 77.5198C56.1033 77.6925 56.4402 77.7638 56.7681 77.7338C57.102 77.6918 57.3554 77.5426 57.5281 77.2861L56.4651 79.4155Z" fill="#00494A"/>
<path d="M61.13 60.9287C60.5629 60.4227 60.1061 59.8632 59.7596 59.2502C59.422 58.6273 59.2023 58.0023 59.1006 57.3754C58.9977 56.7297 59.0238 56.1097 59.1789 55.5154C59.324 54.9122 59.6008 54.3818 60.0091 53.9242C60.4264 53.4566 60.922 53.1215 61.4959 52.9189C62.0688 52.6974 62.6774 52.6061 63.3218 52.645C63.9651 52.6651 64.6109 52.8125 65.2592 53.0873C65.9164 53.3521 66.5286 53.7375 67.0956 54.2435C67.6627 54.7495 68.115 55.314 68.4526 55.9369C68.7991 56.5499 69.0238 57.1793 69.1266 57.825C69.2284 58.4519 69.2067 59.067 69.0616 59.6702C68.9254 60.2634 68.6486 60.7938 68.2314 61.2614C67.823 61.719 67.3274 62.0541 66.7446 62.2667C66.1617 62.4792 65.5487 62.5755 64.9054 62.5554C64.261 62.5165 63.6103 62.3647 62.953 62.0999C62.3047 61.8251 61.697 61.4347 61.13 60.9287ZM62.8847 59.6532C63.4709 59.9976 64.0533 60.2761 64.632 60.4887C65.2107 60.7013 65.7525 60.8452 66.2572 60.9204C66.752 60.9867 67.1911 60.9853 67.5743 60.9163C67.9565 60.8285 68.2541 60.6652 68.4672 60.4264C68.5293 60.3568 68.5687 60.3026 68.5854 60.2639C68.7189 59.9541 68.7417 59.6081 68.6539 59.2259C68.565 58.8249 68.3764 58.4154 68.0882 57.9974C67.8089 57.5695 67.4355 57.1469 66.9679 56.7296C66.5092 56.3024 65.9718 55.9033 65.3558 55.5323C64.7696 55.1879 64.1872 54.9094 63.6085 54.6968C63.0387 54.4742 62.5064 54.3298 62.0115 54.2635C61.5068 54.1884 61.0583 54.1903 60.6662 54.2692C60.2741 54.3482 59.9759 54.5021 59.7717 54.7309C59.7096 54.8005 59.6657 54.8597 59.6402 54.9084C59.4868 55.2004 59.4546 55.5469 59.5435 55.9479C59.6313 56.3301 59.8199 56.7396 60.1091 57.1764C60.3973 57.5944 60.7757 58.0214 61.2444 58.4575C61.7219 58.8836 62.2687 59.2822 62.8847 59.6532Z" fill="#00494A"/>
<path d="M68.0819 46.3153L71.3512 44.189C71.1422 44.3567 71.064 44.5666 71.1167 44.8187C71.1804 45.0635 71.3552 45.3077 71.6409 45.5514L77.6607 50.8453C77.4331 50.373 77.2851 49.8887 77.2168 49.3924C77.1596 48.8888 77.1022 48.4092 77.0445 47.9537C76.998 47.4909 76.9215 47.0555 76.8152 46.6474C76.7089 46.2394 76.4928 45.8949 76.1668 45.6138L74.2061 43.883C73.9058 43.617 73.5989 43.4508 73.2853 43.3844C72.9717 43.3179 72.6959 43.3462 72.4578 43.4693L75.7271 41.3429C75.5181 41.5107 75.4399 41.7206 75.4925 41.9727C75.5563 42.2175 75.7311 42.4617 76.0168 42.7053L82.0366 47.9992C81.7765 47.4526 81.6131 46.8591 81.5464 46.2185C81.4797 45.578 81.4351 44.9469 81.4126 44.3254C81.394 43.6853 81.3491 43.0783 81.2779 42.5043C81.1995 41.9191 81.0222 41.4141 80.7459 40.9894C80.5424 40.6764 80.248 40.3828 79.8628 40.1084C79.4888 39.8268 79.0212 39.6458 78.46 39.5655L79.7174 38.7477C79.9008 38.8829 80.0618 39.0326 80.2005 39.1969C80.343 39.3428 80.4979 39.5442 80.6651 39.8013C80.9995 40.3155 81.2375 40.8526 81.3791 41.4126C81.5134 41.9615 81.6033 42.5154 81.6487 43.0743C81.6941 43.6333 81.7211 44.1883 81.7296 44.7395C81.7382 45.2906 81.7803 45.8199 81.8559 46.3274C81.9315 46.8349 82.061 47.3153 82.2445 47.7686C82.4279 48.2219 82.7193 48.6209 83.1184 48.9657L81.3245 50.1324L77.0457 46.3782C77.19 46.6979 77.2798 47.0928 77.3152 47.5629C77.3505 48.033 77.406 48.5218 77.4816 49.0293C77.5499 49.5256 77.6719 50.0189 77.8476 50.509C78.0232 50.9992 78.3216 51.4334 78.7426 51.8117L76.9319 52.9894L69.8302 46.729C69.5299 46.4631 69.223 46.2969 68.9094 46.2304C68.5958 46.164 68.32 46.1923 68.0819 46.3153Z" fill="#00494A"/>
<path d="M91.6827 39.5607C91.7361 39.1722 91.8918 38.8266 92.1498 38.5239C92.4078 38.2211 92.7678 38.0358 93.2297 37.9679C93.466 37.9262 93.729 37.9205 94.0186 37.9507C94.3083 37.9808 94.6203 38.0612 94.9547 38.1918C95.2892 38.3224 95.6023 38.4093 95.8943 38.4526C96.1839 38.4828 96.4404 38.4782 96.6636 38.4388C97.005 38.3786 97.2668 38.2512 97.4492 38.0566C97.6292 37.8489 97.7223 37.6091 97.7285 37.3372L97.791 37.3465C97.8065 37.3573 97.8219 37.3681 97.8374 37.3789C97.8636 37.3743 97.8911 37.3762 97.9196 37.3847C97.9474 37.5423 97.9339 37.7342 97.879 37.9605C97.8349 38.1714 97.7438 38.3838 97.6055 38.5977C97.478 38.7962 97.3065 38.9754 97.091 39.1352C96.8755 39.2951 96.6167 39.4016 96.3147 39.4548C95.9208 39.5243 95.4643 39.4694 94.9453 39.2901C94.1027 38.9648 93.4122 38.8496 92.8738 38.9445C92.4405 39.0209 92.1006 39.2433 91.8542 39.6117L91.6827 39.5607Z" fill="#00494A"/>
<path d="M118.887 27.8303L119.435 29.5818L119.315 29.5755C119.122 29.178 118.879 28.8513 118.586 28.5954C118.306 28.3401 117.966 28.2019 117.566 28.1807L113.113 27.9439L112.756 34.6544L115.412 34.7956C115.798 34.8162 116.129 34.747 116.404 34.588C116.694 34.4165 116.873 34.1857 116.942 33.8956L116.817 36.2523C116.779 35.9565 116.625 35.7147 116.355 35.5267C116.098 35.3262 115.777 35.2156 115.391 35.1951L112.735 35.0539L112.377 41.7844L117.09 42.0349C117.476 42.0555 117.822 41.9537 118.128 41.7296C118.447 41.4929 118.724 41.1872 118.958 40.8124L119.077 40.8187L118.367 42.5034L108.94 42.0022C109.235 41.9779 109.477 41.8305 109.665 41.5601C109.866 41.2904 109.977 40.9625 109.998 40.5764L110.62 28.8729C110.64 28.4868 110.564 28.1556 110.392 27.8794C110.234 27.5906 110.01 27.4118 109.72 27.3429L118.887 27.8303Z" fill="#00494A"/>
<path d="M128.507 39.6986L127.691 35.2097C127.612 34.7936 127.44 34.4257 127.177 34.1057C126.931 33.7771 126.685 33.5602 126.438 33.455L130.637 34.7701C130.375 34.7158 130.148 34.7916 129.958 34.9975C129.772 35.1907 129.716 35.4806 129.79 35.8672L130.45 39.4481C130.891 39.3346 131.332 39.2211 131.773 39.1077C132.226 38.9982 132.637 38.8684 133.005 38.7183C133.39 38.5594 133.718 38.3827 133.989 38.188C134.259 37.9933 134.438 37.7559 134.526 37.476C134.61 37.2088 134.605 36.9348 134.511 36.654C134.417 36.3731 134.201 36.0819 133.862 35.7802L135.275 36.2225C135.307 36.3442 135.32 36.4811 135.314 36.633C135.321 36.7889 135.293 36.9686 135.229 37.1722C135.093 37.6048 134.857 37.957 134.521 38.2289C134.188 38.488 133.798 38.708 133.35 38.8891C132.919 39.0614 132.453 39.2091 131.954 39.3321C131.458 39.4423 130.973 39.5629 130.499 39.6939L131.372 44.536C131.447 44.9648 131.61 45.3371 131.86 45.6531C132.123 45.973 132.376 46.1919 132.619 46.3097L128.439 45.0007C128.705 45.0422 128.925 44.9644 129.099 44.7673C129.289 44.5614 129.347 44.2651 129.272 43.8785L128.555 39.9444C128.098 40.0666 127.632 40.1932 127.158 40.3242C126.697 40.4591 126.257 40.6147 125.838 40.7911C125.436 40.9586 125.088 41.1569 124.793 41.3858C124.497 41.6147 124.302 41.8818 124.206 42.1872C124.123 42.4544 124.128 42.7284 124.221 43.0092C124.319 43.2773 124.535 43.5686 124.87 43.883L123.457 43.4407C123.426 43.3189 123.406 43.1801 123.399 43.0242C123.405 42.8723 123.442 42.6882 123.509 42.4719C123.657 42.0011 123.909 41.6191 124.267 41.3258C124.637 41.0365 125.054 40.7969 125.519 40.6071C126 40.4086 126.499 40.2434 127.015 40.1117C127.544 39.984 128.041 39.8463 128.507 39.6986Z" fill="#00494A"/>
<path d="M142.234 39.4089L144.814 40.9779L144.212 41.9691C144.518 41.6713 144.886 41.4894 145.316 41.4234C145.758 41.3642 146.178 41.4559 146.577 41.6983C146.975 41.9408 147.327 42.287 147.63 42.737C147.946 43.1939 148.169 43.712 148.3 44.2913C148.439 44.8592 148.466 45.4687 148.382 46.12C148.298 46.7712 148.066 47.4101 147.685 48.0367C147.269 48.7202 146.832 49.2344 146.372 49.5793C145.925 49.9311 145.459 50.1708 144.976 50.2983C144.499 50.4144 144.006 50.4423 143.497 50.3822C143.006 50.3175 142.509 50.2106 142.007 50.0613C141.692 49.9634 141.39 49.8816 141.103 49.8159C140.822 49.7387 140.556 49.7017 140.304 49.7048C140.059 49.6965 139.834 49.7466 139.627 49.8552C139.421 49.9637 139.235 50.1547 139.068 50.4282L138.175 51.8978C137.995 52.194 137.911 52.4862 137.923 52.7744C137.935 53.0626 138.044 53.2931 138.251 53.4658L134.919 51.4396C135.168 51.544 135.423 51.5352 135.684 51.4132C135.945 51.2913 136.166 51.0822 136.346 50.786L142.31 40.9769C142.491 40.6807 142.575 40.3885 142.563 40.1003C142.558 39.8007 142.448 39.5703 142.234 39.4089ZM143.578 43.0115L139.588 49.5737C139.817 49.479 140.048 49.4323 140.282 49.4337C140.526 49.442 140.772 49.4743 141.018 49.5307C141.272 49.5756 141.519 49.6319 141.758 49.6997C142.009 49.7743 142.258 49.8398 142.505 49.8961C142.852 49.9668 143.186 49.9436 143.507 49.8266C143.846 49.7051 144.159 49.4977 144.447 49.2044C144.753 48.9067 145.035 48.5322 145.294 48.0809C145.564 47.6366 145.8 47.1326 146.003 46.569C146.202 46.0351 146.356 45.5124 146.465 45.0008C146.573 44.4892 146.624 44.0207 146.617 43.5954C146.622 43.1769 146.571 42.8108 146.466 42.4969C146.36 42.183 146.193 41.9567 145.965 41.8182C145.749 41.6866 145.519 41.6406 145.277 41.6804C145.041 41.7087 144.815 41.7977 144.599 41.9474C144.391 42.0856 144.194 42.2548 144.01 42.455C143.833 42.6437 143.689 42.8292 143.578 43.0115Z" fill="#00494A"/>
<path d="M151.917 52.3002C152.453 51.7608 153.035 51.3342 153.666 51.0207C154.306 50.7165 154.942 50.5302 155.573 50.4617C156.223 50.3932 156.841 50.4521 157.426 50.6384C158.021 50.8152 158.536 51.1196 158.971 51.5516C159.416 51.993 159.725 52.5056 159.897 53.0895C160.087 53.6733 160.146 54.2859 160.073 54.9273C160.019 55.5687 159.838 56.2058 159.529 56.8386C159.23 57.4809 158.813 58.0718 158.278 58.6113C157.742 59.1508 157.155 59.5726 156.515 59.8768C155.884 60.1904 155.244 60.3814 154.594 60.4499C153.962 60.5184 153.349 60.4642 152.754 60.2874C152.169 60.1199 151.654 59.8155 151.209 59.3741C150.774 58.9421 150.466 58.4295 150.284 57.8362C150.103 57.2429 150.039 56.6256 150.093 55.9843C150.166 55.3429 150.352 54.7011 150.651 54.0588C150.96 53.4259 151.382 52.8397 151.917 52.3002ZM153.098 54.12C152.723 54.6872 152.414 55.254 152.171 55.8207C151.928 56.3873 151.756 56.9207 151.654 57.4208C151.562 57.9114 151.54 58.3499 151.589 58.7362C151.656 59.1225 151.804 59.4284 152.031 59.6538C152.097 59.7195 152.149 59.7617 152.187 59.7804C152.489 59.9301 152.833 59.9712 153.22 59.9037C153.625 59.8361 154.044 59.6695 154.476 59.4039C154.918 59.1476 155.36 58.797 155.802 58.3522C156.252 57.9167 156.679 57.4013 157.083 56.8057C157.457 56.2386 157.766 55.6717 158.009 55.1051C158.262 54.5478 158.434 54.0239 158.526 53.5333C158.628 53.0332 158.65 52.5852 158.592 52.1895C158.534 51.7937 158.396 51.4879 158.178 51.2718C158.112 51.2061 158.055 51.1592 158.008 51.1311C157.725 50.9625 157.38 50.912 156.975 50.9795C156.589 51.047 156.17 51.2136 155.718 51.4794C155.286 51.7451 154.839 52.1003 154.379 52.5453C153.928 52.9996 153.501 53.5245 153.098 54.12Z" fill="#00494A"/>
<path d="M170.922 60.1375L159.959 67.6314C159.673 67.827 159.47 68.0624 159.351 68.3374C159.243 68.6049 159.248 68.8601 159.366 69.1028L157.165 65.8831C157.348 66.0807 157.584 66.1778 157.873 66.1744C158.172 66.1636 158.465 66.0603 158.751 65.8647L168.642 59.1043C168.928 58.9087 169.125 58.6771 169.233 58.4096C169.352 58.1346 169.347 57.8794 169.218 57.6442L170.922 60.1375Z" fill="#00494A"/>
<path d="M166.522 70.9641C167.219 70.6612 167.919 70.4809 168.621 70.4231C169.328 70.3775 169.987 70.4399 170.599 70.6101C171.229 70.7873 171.781 71.0708 172.255 71.4606C172.742 71.8451 173.108 72.3186 173.352 72.8811C173.602 73.4559 173.699 74.0463 173.642 74.6523C173.603 75.2653 173.431 75.8562 173.126 76.4249C172.838 77.0006 172.434 77.5253 171.912 77.9988C171.397 78.4846 170.79 78.879 170.093 79.1818C169.396 79.4847 168.694 79.6589 167.987 79.7045C167.285 79.7623 166.62 79.7026 165.99 79.5254C165.378 79.3552 164.829 79.0778 164.342 78.6933C163.86 78.321 163.495 77.8475 163.245 77.2728C163.001 76.7103 162.904 76.1199 162.955 75.5016C163.006 74.8833 163.176 74.2863 163.464 73.7106C163.769 73.1418 164.179 72.6145 164.695 72.1288C165.216 71.6552 165.825 71.267 166.522 70.9641ZM166.945 73.0918C166.387 73.4798 165.89 73.8919 165.455 74.3283C165.019 74.7647 164.662 75.1963 164.382 75.6231C164.114 76.0446 163.932 76.4439 163.834 76.8208C163.753 77.2046 163.777 77.5432 163.904 77.8367C163.942 77.9223 163.974 77.9808 164.002 78.0122C164.228 78.2632 164.532 78.4289 164.916 78.5092C165.318 78.5965 165.768 78.5969 166.269 78.5103C166.774 78.436 167.315 78.274 167.889 78.0242C168.469 77.7867 169.057 77.466 169.652 77.0621C170.21 76.6741 170.707 76.262 171.143 75.8256C171.583 75.4015 171.938 74.9786 172.205 74.5571C172.485 74.1303 172.671 73.7223 172.764 73.3331C172.856 72.944 172.841 72.6088 172.719 72.3275C172.682 72.2419 172.647 72.1773 172.613 72.1337C172.412 71.8721 172.111 71.6977 171.71 71.6104C171.326 71.53 170.875 71.5297 170.357 71.6093C169.857 71.6958 169.311 71.8605 168.718 72.1033C168.131 72.3584 167.54 72.6879 166.945 73.0918Z" fill="#00494A"/>
<path d="M166.412 85.4896C166.504 85.7433 166.683 85.925 166.95 86.0348C167.23 86.142 167.54 86.1616 167.879 86.0936L175.528 84.5635C175.868 84.4955 176.14 84.3595 176.344 84.1555C176.561 83.9489 176.656 83.7123 176.63 83.4456L177.222 86.4069L175.32 86.7874C175.736 86.8266 176.098 86.9038 176.407 87.0188C176.731 87.1443 176.998 87.2881 177.207 87.4502C177.432 87.6228 177.606 87.8124 177.729 88.0189C177.851 88.2255 177.933 88.4268 177.972 88.6229C178.027 88.8975 178.036 89.1132 177.999 89.2701C177.965 89.4401 177.926 89.5839 177.882 89.7016L175.862 90.1057C176.154 89.9383 176.358 89.7004 176.473 89.3918C176.604 89.0937 176.638 88.7878 176.575 88.474C176.528 88.2386 176.43 88.0203 176.281 87.819C176.145 87.615 175.948 87.4437 175.689 87.3052C175.433 87.1797 175.118 87.0999 174.744 87.066C174.383 87.0294 173.954 87.0608 173.457 87.1602L168.299 88.192C167.959 88.26 167.681 88.3973 167.464 88.6039C167.26 88.8079 167.164 89.0445 167.178 89.3139L166.412 85.4896Z" fill="#00494A"/>
<path d="M173.383 96.5631C174.223 96.5757 174.981 96.7071 175.657 96.9573C176.333 97.2208 176.908 97.5695 177.382 98.0033C177.855 98.4371 178.214 98.9426 178.459 99.5196C178.704 100.097 178.821 100.712 178.811 101.365C178.802 101.965 178.714 102.497 178.547 102.961C178.38 103.426 178.168 103.816 177.91 104.132C177.665 104.462 177.388 104.704 177.079 104.86C176.783 105.028 176.488 105.111 176.195 105.106C175.702 105.099 175.305 104.873 175.005 104.428C174.718 103.984 174.51 103.214 174.38 102.119C174.321 101.584 174.168 101.109 173.921 100.692C173.674 100.275 173.372 99.9434 173.016 99.698C172.659 99.4526 172.268 99.3067 171.842 99.2603C171.416 99.2139 170.982 99.2874 170.539 99.4808C169.853 99.8439 169.307 100.276 168.899 100.776C168.505 101.291 168.303 101.821 168.295 102.367C168.29 102.687 168.353 102.975 168.482 103.23C168.625 103.499 168.808 103.729 169.032 103.919C169.269 104.122 169.526 104.293 169.804 104.43C170.082 104.568 170.361 104.672 170.64 104.743L170.635 105.063C169.599 104.807 168.858 104.383 168.414 103.789C167.983 103.196 167.774 102.44 167.788 101.52C167.799 100.773 167.949 100.089 168.239 99.4663C168.528 98.8572 168.922 98.3364 169.422 97.9039C169.935 97.4715 170.527 97.1337 171.198 96.8904C171.881 96.6606 172.61 96.5515 173.383 96.5631ZM172.008 98.8828C171.954 98.8953 171.887 98.9143 171.807 98.9398C172.447 98.9627 173.023 99.218 173.536 99.7058C174.062 100.207 174.412 100.852 174.587 101.642C174.774 102.458 175.04 103.009 175.382 103.294C175.738 103.593 176.129 103.745 176.555 103.752C176.755 103.755 176.969 103.718 177.197 103.641C177.425 103.578 177.64 103.461 177.842 103.291C178.045 103.134 178.208 102.923 178.332 102.658C178.469 102.393 178.541 102.068 178.547 101.681C178.555 101.108 178.363 100.598 177.969 100.152C177.589 99.7199 177.081 99.3789 176.445 99.1294C175.822 98.88 175.117 98.7294 174.331 98.6776C173.559 98.626 172.784 98.6944 172.008 98.8828Z" fill="#00494A"/>
<path d="M165.362 118.246C165.276 118.529 165.323 118.808 165.505 119.083C165.681 119.37 165.944 119.594 166.296 119.756L176.937 124.667C177.288 124.829 177.624 124.881 177.944 124.823C178.271 124.783 178.52 124.641 178.692 124.397L177.259 127.502C176.363 127.089 175.528 126.814 174.754 126.677C173.975 126.552 173.24 126.522 172.55 126.585C171.86 126.648 171.202 126.785 170.576 126.996C169.963 127.212 169.374 127.454 168.809 127.722C168.239 128.003 167.69 128.285 167.162 128.57C166.647 128.861 166.126 129.113 165.602 129.326C165.09 129.545 164.576 129.704 164.06 129.804C163.539 129.916 163.008 129.921 162.468 129.818L172.438 134.419C172.789 134.581 173.124 134.633 173.445 134.575C173.772 134.535 174.023 134.387 174.2 134.131L173.203 136.292C173.278 136.003 173.227 135.715 173.051 135.428C172.881 135.159 172.621 134.944 172.27 134.782L161.628 129.871C161.277 129.709 160.938 129.648 160.611 129.688C160.279 129.741 160.033 129.891 159.874 130.141L161.307 127.036C162.215 127.455 163.068 127.643 163.866 127.6C164.664 127.557 165.443 127.395 166.204 127.115C166.971 126.852 167.728 126.518 168.472 126.113C169.212 125.72 169.976 125.368 170.766 125.057C171.568 124.751 172.405 124.543 173.279 124.432C174.165 124.327 175.11 124.426 176.116 124.728L166.128 120.119C165.777 119.957 165.438 119.896 165.111 119.937C164.779 119.989 164.53 120.146 164.365 120.407L165.362 118.246Z" fill="#00494A"/>
<path d="M161.266 136.867C161.849 137.356 162.323 137.901 162.688 138.503C163.044 139.115 163.283 139.733 163.404 140.357C163.527 140.999 163.52 141.62 163.383 142.218C163.256 142.826 162.996 143.364 162.602 143.834C162.199 144.315 161.714 144.665 161.147 144.885C160.581 145.124 159.975 145.234 159.33 145.215C158.686 145.214 158.036 145.087 157.38 144.832C156.715 144.588 156.091 144.221 155.509 143.733C154.927 143.244 154.457 142.694 154.1 142.082C153.735 141.48 153.491 140.857 153.369 140.215C153.248 139.592 153.251 138.976 153.377 138.369C153.495 137.772 153.756 137.233 154.158 136.753C154.552 136.283 155.037 135.933 155.613 135.703C156.189 135.472 156.799 135.357 157.443 135.357C158.088 135.377 158.743 135.508 159.408 135.753C160.065 136.008 160.684 136.379 161.266 136.867ZM159.552 138.196C158.955 137.87 158.365 137.61 157.78 137.415C157.195 137.22 156.649 137.093 156.142 137.033C155.645 136.982 155.206 136.997 154.826 137.078C154.446 137.177 154.154 137.35 153.948 137.595C153.888 137.666 153.85 137.722 153.835 137.761C153.711 138.075 153.699 138.421 153.798 138.8C153.9 139.199 154.101 139.602 154.401 140.011C154.694 140.43 155.08 140.841 155.56 141.244C156.032 141.657 156.581 142.039 157.208 142.391C157.805 142.717 158.395 142.978 158.98 143.173C159.557 143.378 160.093 143.506 160.59 143.557C161.097 143.616 161.545 143.601 161.934 143.51C162.324 143.419 162.617 143.256 162.814 143.021C162.874 142.949 162.916 142.889 162.94 142.839C163.085 142.543 163.106 142.195 163.005 141.797C162.906 141.418 162.705 141.014 162.402 140.587C162.101 140.178 161.71 139.763 161.228 139.341C160.738 138.93 160.179 138.548 159.552 138.196Z" fill="#00494A"/>
<path d="M154.767 151.688L151.564 153.913C151.768 153.739 151.84 153.527 151.779 153.277C151.708 153.034 151.526 152.795 151.233 152.56L145.053 147.454C145.295 147.919 145.458 148.398 145.542 148.892C145.614 149.394 145.686 149.871 145.758 150.325C145.819 150.786 145.909 151.219 146.027 151.624C146.146 152.028 146.373 152.366 146.707 152.637L148.72 154.307C149.028 154.563 149.34 154.72 149.656 154.777C149.971 154.834 150.246 154.797 150.48 154.667L147.278 156.892C147.482 156.718 147.553 156.506 147.493 156.256C147.422 156.013 147.239 155.774 146.946 155.539L140.767 150.433C141.044 150.971 141.225 151.559 141.312 152.198C141.398 152.836 141.462 153.465 141.503 154.086C141.542 154.725 141.605 155.33 141.694 155.902C141.79 156.484 141.983 156.984 142.272 157.4C142.485 157.706 142.788 157.991 143.182 158.253C143.564 158.523 144.037 158.69 144.601 158.753L143.369 159.609C143.182 159.479 143.016 159.335 142.872 159.175C142.725 159.033 142.564 158.837 142.389 158.585C142.039 158.081 141.785 157.552 141.626 156.996C141.475 156.452 141.368 155.901 141.306 155.343C141.243 154.786 141.199 154.232 141.174 153.682C141.148 153.131 141.09 152.603 140.999 152.098C140.908 151.593 140.764 151.117 140.566 150.67C140.369 150.222 140.066 149.832 139.656 149.5L141.413 148.279L145.805 151.9C145.651 151.585 145.549 151.193 145.5 150.724C145.45 150.255 145.379 149.768 145.288 149.263C145.205 148.769 145.068 148.28 144.877 147.796C144.686 147.311 144.375 146.886 143.942 146.521L145.716 145.288L153.007 151.328C153.315 151.584 153.627 151.741 153.942 151.798C154.258 151.855 154.533 151.818 154.767 151.688Z" fill="#00494A"/>
<path d="M130.498 159.327C130.456 159.717 130.311 160.067 130.063 160.378C129.814 160.688 129.46 160.884 129 160.967C128.765 161.015 128.503 161.029 128.212 161.008C127.922 160.987 127.607 160.916 127.269 160.796C126.931 160.675 126.615 160.598 126.322 160.564C126.032 160.543 125.776 160.555 125.554 160.601C125.214 160.672 124.956 160.807 124.78 161.007C124.607 161.221 124.521 161.463 124.523 161.735L124.46 161.728C124.444 161.717 124.429 161.707 124.413 161.697C124.387 161.702 124.359 161.701 124.33 161.693C124.298 161.537 124.306 161.344 124.353 161.117C124.391 160.904 124.476 160.689 124.607 160.471C124.729 160.269 124.895 160.085 125.105 159.918C125.316 159.752 125.571 159.637 125.871 159.575C126.263 159.493 126.721 159.534 127.245 159.698C128.097 159.997 128.791 160.091 129.326 159.979C129.757 159.89 130.09 159.657 130.325 159.281L130.498 159.327Z" fill="#00494A"/>
<path d="M87 99C99.87 98.1253 110.116 87.8793 110.991 75.0093C111.865 87.8793 122.111 98.1253 134.981 99C122.111 99.8747 111.865 110.121 110.991 122.991C110.116 110.121 99.87 99.8747 87 99Z" fill="#00494A"/>
<mask id="path-26-inside-1_102_1069" fill="white">
<path d="M153.729 183.137C136.926 192.175 117.786 195.928 98.8138 193.906C79.842 191.884 61.9229 184.181 47.4023 171.805C32.8817 159.429 22.4363 142.956 17.4336 124.545C12.4309 106.133 13.104 86.64 19.3649 68.6173L20.2665 68.9305C14.0687 86.7716 13.4024 106.068 18.3547 124.295C23.307 142.521 33.6471 158.827 48.0214 171.078C62.3958 183.33 80.1344 190.955 98.915 192.957C117.696 194.959 136.643 191.243 153.277 182.296L153.729 183.137Z"/>
</mask>
<path d="M153.729 183.137C136.926 192.175 117.786 195.928 98.8138 193.906C79.842 191.884 61.9229 184.181 47.4023 171.805C32.8817 159.429 22.4363 142.956 17.4336 124.545C12.4309 106.133 13.104 86.64 19.3649 68.6173L20.2665 68.9305C14.0687 86.7716 13.4024 106.068 18.3547 124.295C23.307 142.521 33.6471 158.827 48.0214 171.078C62.3958 183.33 80.1344 190.955 98.915 192.957C117.696 194.959 136.643 191.243 153.277 182.296L153.729 183.137Z" fill="#00494A" stroke="#00494A" stroke-width="2" mask="url(#path-26-inside-1_102_1069)"/>
<mask id="path-27-inside-2_102_1069" fill="white">
<path d="M66.0407 15.1953C82.755 6.72781 101.605 3.40689 120.207 5.65244C138.808 7.89799 156.327 15.6092 170.546 27.8109C184.765 40.0125 195.047 56.1567 200.091 74.2018C205.135 92.2469 204.714 111.383 198.883 129.189L197.976 128.892C203.748 111.265 204.165 92.3221 199.171 74.4588C194.178 56.5955 184 40.614 169.924 28.5352C155.848 16.4565 138.507 8.82298 120.092 6.60007C101.678 4.37714 83.018 7.66461 66.472 16.0468L66.0407 15.1953Z"/>
</mask>
<path d="M66.0407 15.1953C82.755 6.72781 101.605 3.40689 120.207 5.65244C138.808 7.89799 156.327 15.6092 170.546 27.8109C184.765 40.0125 195.047 56.1567 200.091 74.2018C205.135 92.2469 204.714 111.383 198.883 129.189L197.976 128.892C203.748 111.265 204.165 92.3221 199.171 74.4588C194.178 56.5955 184 40.614 169.924 28.5352C155.848 16.4565 138.507 8.82298 120.092 6.60007C101.678 4.37714 83.018 7.66461 66.472 16.0468L66.0407 15.1953Z" fill="#00494A" stroke="#00494A" stroke-width="2" mask="url(#path-27-inside-2_102_1069)"/>
<path d="M63.1934 9.25C64.3069 14.2286 68.2218 18.1426 73.2002 19.2568C68.2222 20.3709 64.3074 24.2856 63.1934 29.2637C62.0791 24.2853 58.1651 20.3704 53.1865 19.2568C58.1655 18.1431 62.0796 14.2289 63.1934 9.25Z" stroke="#00494A"/>
<path d="M206.695 130.531C202.466 133.384 200.249 138.456 201.028 143.498C198.175 139.27 193.102 137.053 188.06 137.831C192.289 134.978 194.507 129.905 193.727 124.864C196.581 129.093 201.653 131.31 206.695 130.531Z" stroke="#00494A"/>
<path d="M157.063 188.669C155.863 183.711 151.881 179.865 146.884 178.838C151.842 177.637 155.688 173.655 156.715 168.658C157.916 173.617 161.897 177.463 166.894 178.49C161.935 179.69 158.09 183.672 157.063 188.669Z" stroke="#00494A"/>
<path d="M31.2287 62.5795C26.4052 64.2409 22.9519 68.5676 22.3993 73.6391C20.7375 68.8162 16.4109 65.3621 11.3397 64.8097C16.1629 63.1476 19.6173 58.8218 20.1692 53.7501C21.8308 58.5739 26.1567 62.0275 31.2287 62.5795Z" stroke="#00494A"/>
</svg>
