<svg width="73" height="86" viewBox="0 0 73 86" fill="none" xmlns="http://www.w3.org/2000/svg">
<path fill-rule="evenodd" clip-rule="evenodd" d="M46.9998 6.07254e-05C46.0519 13.9479 34.9478 25.0519 21 25.9999C34.9478 26.9478 46.0519 38.0519 46.9998 51.9997C47.9478 38.0519 59.0518 26.9478 72.9996 25.9999C59.0518 25.0519 47.9478 13.9479 46.9998 6.07254e-05ZM46.9287 8.21154C46.8585 18.0631 38.8895 26.0321 29.038 26.1022C38.8895 26.1724 46.8585 34.1414 46.9287 43.9929C46.9988 34.1414 54.9678 26.1724 64.8194 26.1022C54.9678 26.0321 46.9988 18.0631 46.9287 8.21154Z" fill="#F4F5F5"/>
<path fill-rule="evenodd" clip-rule="evenodd" d="M16.9706 51.9989C16.3518 61.1029 9.10398 68.3507 0 68.9695C9.10398 69.5882 16.3518 76.8361 16.9706 85.94C17.5893 76.8361 24.8371 69.5882 33.9411 68.9695C24.8371 68.3507 17.5893 61.1029 16.9706 51.9989ZM16.924 57.3586C16.8783 63.7889 11.6767 68.9904 5.24646 69.0362C11.6767 69.082 16.8783 74.2835 16.924 80.7138C16.9698 74.2835 22.1713 69.082 28.6016 69.0362C22.1713 68.9904 16.9698 63.7889 16.924 57.3586Z" fill="#F4F5F5"/>
</svg>
