<svg width="152" height="142" viewBox="0 0 152 142" fill="none" xmlns="http://www.w3.org/2000/svg">
<mask id="path-1-inside-1_102_1224" fill="white">
<path d="M108.09 130.59C96.1079 137.034 82.4595 139.711 68.9313 138.269C55.4031 136.827 42.6254 131.334 32.2712 122.509C21.9169 113.684 14.4686 101.938 10.9013 88.8094C7.33401 75.6806 7.814 61.7806 12.2784 48.9291L12.9214 49.1524C8.50192 61.8744 8.02676 75.6344 11.5581 88.631C15.0894 101.628 22.4627 113.255 32.7127 121.991C42.9626 130.727 55.6115 136.165 69.0034 137.592C82.3953 139.02 95.9062 136.37 107.767 129.99L108.09 130.59Z"/>
</mask>
<path d="M108.09 130.59C96.1079 137.034 82.4595 139.711 68.9313 138.269C55.4031 136.827 42.6254 131.334 32.2712 122.509C21.9169 113.684 14.4686 101.938 10.9013 88.8094C7.33401 75.6806 7.814 61.7806 12.2784 48.9291L12.9214 49.1524C8.50192 61.8744 8.02676 75.6344 11.5581 88.631C15.0894 101.628 22.4627 113.255 32.7127 121.991C42.9626 130.727 55.6115 136.165 69.0034 137.592C82.3953 139.02 95.9062 136.37 107.767 129.99L108.09 130.59Z" fill="#F7F8F7" stroke="#F7F8F7" stroke-width="1.42498" mask="url(#path-1-inside-1_102_1224)"/>
<mask id="path-2-inside-2_102_1224" fill="white">
<path d="M45.5615 10.8353C57.4801 4.79741 70.9214 2.42933 84.1858 4.03057C97.4502 5.63181 109.942 11.1304 120.081 19.8311C130.221 28.5318 137.552 40.0438 141.149 52.9112C144.746 65.7787 144.446 79.4238 140.288 92.1209L139.641 91.9091C143.757 79.3399 144.054 65.8323 140.493 53.0945C136.933 40.3566 129.675 28.9607 119.638 20.3477C109.601 11.7346 97.235 6.2914 84.1042 4.7063C70.9735 3.12118 57.6676 5.46539 45.8691 11.4425L45.5615 10.8353Z"/>
</mask>
<path d="M45.5615 10.8353C57.4801 4.79741 70.9214 2.42933 84.1858 4.03057C97.4502 5.63181 109.942 11.1304 120.081 19.8311C130.221 28.5318 137.552 40.0438 141.149 52.9112C144.746 65.7787 144.446 79.4238 140.288 92.1209L139.641 91.9091C143.757 79.3399 144.054 65.8323 140.493 53.0945C136.933 40.3566 129.675 28.9607 119.638 20.3477C109.601 11.7346 97.235 6.2914 84.1042 4.7063C70.9735 3.12118 57.6676 5.46539 45.8691 11.4425L45.5615 10.8353Z" fill="#F7F8F7" stroke="#F7F8F7" stroke-width="1.42498" mask="url(#path-2-inside-2_102_1224)"/>
<path d="M43.5316 6.59427C44.3254 10.1456 47.1172 12.9378 50.6683 13.732C47.1175 14.526 44.3257 17.3179 43.5316 20.8687C42.7375 17.3175 39.9453 14.5257 36.3939 13.732C39.9456 12.9381 42.7378 10.146 43.5316 6.59427Z" stroke="#F7F8F7" stroke-width="0.712488"/>
<path d="M145.86 93.0773C142.843 95.1118 141.262 98.7297 141.817 102.326C139.783 99.3094 136.165 97.7283 132.569 98.2842C135.586 96.2494 137.167 92.6312 136.611 89.0351C138.645 92.0524 142.264 93.6337 145.86 93.0773Z" stroke="#F7F8F7" stroke-width="0.712488"/>
<path d="M110.466 134.536C109.611 130.999 106.771 128.256 103.207 127.524C106.743 126.668 109.486 123.828 110.218 120.264C111.074 123.801 113.914 126.544 117.479 127.276C113.942 128.131 111.198 130.971 110.466 134.536Z" stroke="#F7F8F7" stroke-width="0.712488"/>
<path d="M20.7399 44.624C17.2991 45.8085 14.8354 48.894 14.4419 52.5116C13.2571 49.0714 10.1715 46.608 6.55436 46.2146C9.99491 45.0297 12.4582 41.9438 12.8513 38.3261C14.0359 41.7672 17.1218 44.2309 20.7399 44.624Z" stroke="#F7F8F7" stroke-width="0.712488"/>
</svg>
