<svg width="214" height="198" viewBox="0 0 214 198" fill="none" xmlns="http://www.w3.org/2000/svg">
<mask id="path-1-inside-1_102_1102" fill="white">
<path d="M151.646 183.213C134.836 192.254 115.688 196.01 96.7081 193.987C77.7284 191.964 59.8018 184.257 45.2752 171.876C30.7485 159.495 20.2988 143.016 15.294 124.597C10.2892 106.177 10.9627 86.676 17.2261 68.6458L18.1281 68.9592C11.9278 86.8077 11.2612 106.112 16.2155 124.346C21.1699 142.58 31.5143 158.893 45.8946 171.149C60.2749 183.406 78.0209 191.035 96.8093 193.037C115.598 195.04 134.553 191.322 151.193 182.372L151.646 183.213Z"/>
</mask>
<path d="M151.646 183.213C134.836 192.254 115.688 196.01 96.7081 193.987C77.7284 191.964 59.8018 184.257 45.2752 171.876C30.7485 159.495 20.2988 143.016 15.294 124.597C10.2892 106.177 10.9627 86.676 17.2261 68.6458L18.1281 68.9592C11.9278 86.8077 11.2612 106.112 16.2155 124.346C21.1699 142.58 31.5143 158.893 45.8946 171.149C60.2749 183.406 78.0209 191.035 96.8093 193.037C115.598 195.04 134.553 191.322 151.193 182.372L151.646 183.213Z" fill="#00494A" stroke="#00494A" stroke-width="2" mask="url(#path-1-inside-1_102_1102)"/>
<mask id="path-2-inside-2_102_1102" fill="white">
<path d="M63.9213 15.2016C80.6426 6.73061 99.5004 3.40831 118.11 5.65479C136.719 7.90128 154.245 15.6157 168.47 27.8224C182.695 40.0292 192.981 56.1801 198.027 74.2327C203.073 92.2853 202.653 111.429 196.819 129.242L195.911 128.945C201.686 111.311 202.103 92.3604 197.107 74.4897C192.112 56.619 181.93 40.6309 167.848 28.5471C153.766 16.4633 136.417 8.82665 117.995 6.60281C99.5734 4.37896 80.9057 7.6678 64.3529 16.0534L63.9213 15.2016Z"/>
</mask>
<path d="M63.9213 15.2016C80.6426 6.73061 99.5004 3.40831 118.11 5.65479C136.719 7.90128 154.245 15.6157 168.47 27.8224C182.695 40.0292 192.981 56.1801 198.027 74.2327C203.073 92.2853 202.653 111.429 196.819 129.242L195.911 128.945C201.686 111.311 202.103 92.3604 197.107 74.4897C192.112 56.619 181.93 40.6309 167.848 28.5471C153.766 16.4633 136.417 8.82665 117.995 6.60281C99.5734 4.37896 80.9057 7.6678 64.3529 16.0534L63.9213 15.2016Z" fill="#00494A" stroke="#00494A" stroke-width="2" mask="url(#path-2-inside-2_102_1102)"/>
<path d="M61.0728 9.25384C62.1869 14.2345 66.1034 18.1501 71.0838 19.2648C66.1037 20.3793 62.1873 24.2957 61.0728 29.2758C59.9581 24.2954 56.0425 20.3789 51.0618 19.2648C56.0428 18.1506 59.9586 14.2348 61.0728 9.25384Z" stroke="#00494A"/>
<path d="M204.634 130.585C200.403 133.439 198.186 138.514 198.965 143.558C196.11 139.327 191.035 137.11 185.992 137.888C190.222 135.034 192.441 129.959 191.661 124.915C194.515 129.147 199.59 131.364 204.634 130.585Z" stroke="#00494A"/>
<path d="M154.981 188.748C153.781 183.787 149.797 179.94 144.798 178.912C149.758 177.711 153.606 173.727 154.633 168.729C155.834 173.689 159.818 177.537 164.817 178.564C159.856 179.765 156.009 183.748 154.981 188.748Z" stroke="#00494A"/>
<path d="M29.0949 62.6055C24.2694 64.2676 20.8146 68.5961 20.2618 73.6697C18.5993 68.8448 14.2709 65.3892 9.19763 64.8366C14.0228 63.1739 17.4786 58.8462 18.0307 53.7724C19.6931 58.5982 24.0208 62.0533 29.0949 62.6055Z" stroke="#00494A"/>
</svg>
