<svg width="638" height="348" viewBox="0 0 638 348" fill="none" xmlns="http://www.w3.org/2000/svg">
<path opacity="0.8" d="M0.41477 122.761L0 154.923C0 154.923 61.1925 142.678 136.589 177.089C174.84 194.533 213.837 229.507 247.365 291.132C319.936 424.51 366.841 289.524 431.578 228.422C454.93 206.354 480.945 193.786 511.403 209.172C586.098 246.924 615.754 233.125 628.262 219.333C634.765 212.162 636.631 204.991 637.788 205.058L638 188.295C638 188.295 629.875 255.384 508.499 184.875C455.685 154.208 416.863 201.724 381.598 249.232C335.807 310.937 295.999 372.635 239.272 263.124C174.563 138.22 94.0469 116 44.9796 116C17.9135 116 0.41477 122.761 0.41477 122.761Z" fill="#EEF0EE"/>
<path opacity="0.8" d="M0.41477 6.76054L0 38.9226C0 38.9226 61.1925 26.6783 136.589 61.0894C174.84 78.5331 213.837 113.507 247.365 175.132C319.936 308.51 366.841 173.524 431.578 112.422C454.93 90.3541 480.945 77.7856 511.403 93.1721C586.098 130.924 615.754 117.125 628.262 103.333C634.765 96.1621 636.631 88.9914 637.788 89.0576L638 72.2952C638 72.2952 629.875 139.384 508.499 68.8753C455.685 38.2082 416.863 85.7236 381.598 133.232C335.807 194.937 295.999 256.635 239.272 147.124C174.563 22.2198 94.0469 0 44.9796 0C17.9135 0 0.41477 6.76054 0.41477 6.76054Z" fill="#EEF0EE"/>
</svg>
