<svg width="1300" height="52" viewBox="0 0 1300 52" fill="none" xmlns="http://www.w3.org/2000/svg">
<path d="M10.8559 21.0928C12.5092 21.0928 13.8788 21.6479 14.9579 22.7651C16.037 23.8823 16.5766 25.4227 16.5766 27.3865V36.7195H12.6683V27.8722C12.6683 26.8591 12.3985 26.0819 11.852 25.5476C11.3056 25.0133 10.5792 24.7427 9.67306 24.7427C8.66312 24.7427 7.85379 25.055 7.25198 25.6864C6.64326 26.3179 6.34581 27.2546 6.34581 28.5106V36.7195H2.4375V21.523H6.33889V23.2231C7.28657 21.8006 8.79455 21.0928 10.8559 21.0928Z" fill="#004C4C"/>
<path d="M32.8181 34.8183C31.2617 36.3657 29.3663 37.1429 27.1251 37.1429C24.8839 37.1429 22.9885 36.3657 21.446 34.8183C19.9034 33.2709 19.1287 31.3696 19.1287 29.1214C19.1287 26.8731 19.9034 24.9718 21.446 23.4244C22.9885 21.877 24.8839 21.0999 27.1251 21.0999C29.3663 21.0999 31.2686 21.877 32.8181 23.4244C34.3745 24.9718 35.1493 26.8731 35.1493 29.1214C35.1493 31.3627 34.3745 33.264 32.8181 34.8183ZM24.1991 32.126C24.9738 32.917 25.9492 33.3126 27.1251 33.3126C28.2942 33.3126 29.2764 32.917 30.065 32.126C30.8536 31.3349 31.2479 30.3357 31.2479 29.1144C31.2479 27.9001 30.8536 26.894 30.065 26.1029C29.2764 25.3119 28.2942 24.9163 27.1251 24.9163C25.9561 24.9163 24.9807 25.3119 24.1991 26.1029C23.4243 26.894 23.03 27.8932 23.03 29.1144C23.03 30.3357 23.4174 31.3349 24.1991 32.126Z" fill="#004C4C"/>
<path d="M50.8176 34.8183C49.2612 36.3657 47.3659 37.1429 45.1246 37.1429C42.8834 37.1429 40.9881 36.3657 39.4455 34.8183C37.9029 33.2709 37.1282 31.3696 37.1282 29.1214C37.1282 26.8731 37.9029 24.9718 39.4455 23.4244C40.9881 21.877 42.8834 21.0999 45.1246 21.0999C47.3659 21.0999 49.2681 21.877 50.8176 23.4244C52.374 24.9718 53.1488 26.8731 53.1488 29.1214C53.1488 31.3627 52.3671 33.264 50.8176 34.8183ZM42.1986 32.126C42.9733 32.917 43.9487 33.3126 45.1246 33.3126C46.2937 33.3126 47.2759 32.917 48.0645 32.126C48.8531 31.3349 49.2474 30.3357 49.2474 29.1144C49.2474 27.9001 48.8531 26.894 48.0645 26.1029C47.2759 25.3119 46.2937 24.9163 45.1246 24.9163C43.9556 24.9163 42.9803 25.3119 42.1986 26.1029C41.4239 26.894 41.0296 27.8932 41.0296 29.1144C41.0296 30.3357 41.4169 31.3349 42.1986 32.126Z" fill="#004C4C"/>
<path d="M69.8747 36.7126H65.33L59.8169 29.8083V36.7126H55.9086V15.4375H59.8169V28.2331L65.0256 21.523H69.6949L63.6076 29.0311L69.8747 36.7126Z" fill="#004C4C"/>
<path d="M619.312 18H647.312" stroke="#004C4C" stroke-width="2" stroke-linecap="round"/>
<path d="M623.312 26L643.313 26" stroke="#004C4C" stroke-width="2" stroke-linecap="round"/>
<path d="M619.312 34H647.312" stroke="#004C4C" stroke-width="2" stroke-linecap="round"/>
<path d="M1278 17H1280.5L1282.5 31H1293C1294.1 31 1295 31.8954 1295 33C1295 34.1046 1294.1 35 1293 35C1291.9 35 1291 34.1046 1291 33M1285 19H1297L1295 25M1294 28H1282.07M1287 33C1287 34.1046 1286.1 35 1285 35C1283.9 35 1283 34.1046 1283 33C1283 31.8954 1283.9 31 1285 31C1286.1 31 1287 31.8954 1287 33Z" stroke="#303635" stroke-width="1.5" stroke-linecap="round" stroke-linejoin="round"/>
<path d="M1232.33 26.0474L1240 34L1247.67 26.0474C1248.52 25.1633 1249 23.9643 1249 22.714C1249 20.1105 1246.96 18 1244.45 18C1243.25 18 1242.09 18.4967 1241.24 19.3807L1240 20.6667L1238.76 19.3807C1237.91 18.4967 1236.75 18 1235.55 18C1233.04 18 1231 20.1106 1231 22.714C1231 23.9643 1231.48 25.1633 1232.33 26.0474Z" stroke="#303635" stroke-width="1.5" stroke-linecap="round" stroke-linejoin="round"/>
<path d="M1196 29H1188C1185.79 29 1184 30.7909 1184 33V35H1200V33C1200 30.7909 1198.21 29 1196 29Z" stroke="#303635" stroke-width="1.5" stroke-linecap="round" stroke-linejoin="round"/>
<path d="M1192 25C1194.21 25 1196 23.2091 1196 21C1196 18.7909 1194.21 17 1192 17C1189.79 17 1188 18.7909 1188 21C1188 23.2091 1189.79 25 1192 25Z" stroke="#303635" stroke-width="1.5" stroke-linecap="round" stroke-linejoin="round"/>
</svg>
