<svg width="159" height="142" viewBox="0 0 159 142" fill="none" xmlns="http://www.w3.org/2000/svg">
<path d="M71.3541 121.951L71.0023 120.692L71.0875 120.699C71.2159 120.986 71.3818 121.224 71.5852 121.413C71.7792 121.601 72.0181 121.707 72.3021 121.731L75.4687 121.997L75.8695 117.226L73.9809 117.067C73.7064 117.044 73.4693 117.086 73.2696 117.193C73.0597 117.309 72.9271 117.469 72.8717 117.675L73.0125 115.999C73.0328 116.21 73.1372 116.386 73.3257 116.526C73.5039 116.674 73.7303 116.76 74.0048 116.783L75.8933 116.942L76.2953 112.156L72.9442 111.875C72.6697 111.852 72.4211 111.917 72.1985 112.07C71.9657 112.231 71.762 112.443 71.5875 112.705L71.5023 112.698L72.0451 111.513L78.7474 112.076C78.5367 112.087 78.3615 112.187 78.2217 112.375C78.0725 112.563 77.9864 112.794 77.9633 113.069L77.2643 121.39C77.2412 121.664 77.288 121.902 77.4046 122.102C77.511 122.311 77.6667 122.444 77.8718 122.499L71.3541 121.951Z" fill="#F7F8F7"/>
<path d="M64.7721 113.291L65.2549 116.506C65.3022 116.804 65.4161 117.069 65.5965 117.303C65.7647 117.542 65.9355 117.702 66.1087 117.783L63.1472 116.754C63.333 116.799 63.4958 116.75 63.6358 116.607C63.7726 116.474 63.8187 116.268 63.7741 115.991L63.3824 113.427C63.0661 113.498 62.7498 113.569 62.4334 113.64C62.1081 113.708 61.8126 113.792 61.547 113.891C61.2693 113.995 61.032 114.114 60.8351 114.247C60.6381 114.38 60.5054 114.545 60.4368 114.742C60.3714 114.931 60.369 115.126 60.4295 115.328C60.4901 115.53 60.6377 115.742 60.8723 115.964L59.8761 115.618C59.8562 115.531 59.8499 115.433 59.8572 115.325C59.8556 115.214 59.8797 115.087 59.9296 114.943C60.0355 114.638 60.2114 114.392 60.457 114.206C60.6996 114.029 60.9823 113.881 61.3053 113.762C61.6161 113.648 61.9508 113.553 62.3093 113.477C62.6646 113.409 63.0126 113.334 63.3531 113.251L62.8375 109.783C62.7932 109.476 62.6854 109.208 62.514 108.977C62.3336 108.744 62.1584 108.582 61.9883 108.493L64.9363 109.517C64.7475 109.481 64.5891 109.532 64.4612 109.668C64.3213 109.811 64.2736 110.021 64.3182 110.297L64.7428 113.115C65.0712 113.038 65.4057 112.958 65.7462 112.875C66.0778 112.789 66.3945 112.688 66.6964 112.571C66.9862 112.461 67.2387 112.327 67.4539 112.171C67.6692 112.014 67.8142 111.828 67.889 111.613C67.9544 111.424 67.9569 111.229 67.8963 111.027C67.8326 110.834 67.685 110.622 67.4536 110.391L68.4497 110.736C68.4697 110.824 68.4804 110.923 68.4821 111.034C68.4747 111.142 68.4445 111.273 68.3916 111.425C68.2763 111.757 68.0882 112.024 67.8273 112.225C67.5575 112.423 67.255 112.584 66.92 112.709C66.5729 112.84 66.214 112.947 65.8434 113.029C65.4639 113.109 65.1068 113.196 64.7721 113.291Z" fill="#F7F8F7"/>
<path d="M54.9975 113.201L53.1942 112.027L53.645 111.335C53.4207 111.54 53.1546 111.661 52.8467 111.699C52.5308 111.732 52.2336 111.657 51.9549 111.476C51.6763 111.294 51.4337 111.04 51.2272 110.713C51.0128 110.381 50.865 110.007 50.7841 109.591C50.6979 109.184 50.6918 108.749 50.7658 108.287C50.8397 107.825 51.0192 107.376 51.3042 106.938C51.6152 106.46 51.938 106.103 52.2727 105.868C52.5994 105.627 52.9362 105.466 53.2831 105.386C53.6249 105.314 53.9766 105.305 54.3381 105.359C54.6866 105.416 55.038 105.503 55.3923 105.62C55.6145 105.697 55.8274 105.761 56.0308 105.815C56.2291 105.876 56.4179 105.908 56.5971 105.911C56.7711 105.922 56.9328 105.892 57.0822 105.819C57.2316 105.746 57.3685 105.614 57.4929 105.423L58.1614 104.396C58.2961 104.189 58.3624 103.983 58.3601 103.777C58.3578 103.572 58.2849 103.405 58.1412 103.278L60.47 104.793C60.2952 104.714 60.1134 104.714 59.9246 104.795C59.7358 104.877 59.574 105.021 59.4393 105.228L54.9773 112.083C54.8426 112.29 54.7763 112.496 54.7786 112.702C54.7757 112.915 54.8486 113.081 54.9975 113.201ZM54.1192 110.606L57.1042 106.02C56.9389 106.082 56.7732 106.111 56.6071 106.105C56.4331 106.093 56.2589 106.065 56.0845 106.019C55.9049 105.982 55.7305 105.936 55.5612 105.883C55.3841 105.824 55.2083 105.772 55.0339 105.727C54.7882 105.669 54.5498 105.678 54.3188 105.754C54.0746 105.833 53.8469 105.974 53.6357 106.177C53.4114 106.382 53.2021 106.643 53.008 106.958C52.8059 107.269 52.6266 107.623 52.4702 108.02C52.3163 108.395 52.1952 108.764 52.1069 109.126C52.0187 109.488 51.9723 109.821 51.9677 110.124C51.9552 110.422 51.9831 110.684 52.0515 110.909C52.1198 111.135 52.2336 111.3 52.3929 111.404C52.5441 111.502 52.7066 111.54 52.8803 111.517C53.0487 111.502 53.2114 111.443 53.3684 111.342C53.5202 111.248 53.6639 111.132 53.7994 110.993C53.9297 110.862 54.0363 110.733 54.1192 110.606Z" fill="#F7F8F7"/>
<path d="M48.3897 103.815C47.9966 104.187 47.5722 104.478 47.1164 104.688C46.654 104.89 46.1972 105.009 45.746 105.044C45.2814 105.078 44.8428 105.023 44.4301 104.878C44.0104 104.739 43.6503 104.511 43.3497 104.193C43.0426 103.869 42.8342 103.497 42.7245 103.078C42.6013 102.658 42.5727 102.22 42.6387 101.765C42.6912 101.31 42.8343 100.86 43.068 100.416C43.2951 99.9652 43.6052 99.5535 43.9982 99.181C44.3913 98.8085 44.819 98.5209 45.2813 98.3183C45.7372 98.1088 46.1974 97.9867 46.662 97.9522C47.1132 97.9172 47.5486 97.9692 47.9682 98.1082C48.3813 98.2402 48.7414 98.4682 49.0485 98.7923C49.3491 99.1095 49.5575 99.4813 49.6738 99.9078C49.79 100.334 49.8219 100.775 49.7693 101.231C49.7034 101.686 49.5568 102.139 49.3297 102.59C49.096 103.034 48.7827 103.442 48.3897 103.815ZM47.5885 102.493C47.8679 102.097 48.1003 101.7 48.2857 101.302C48.4711 100.904 48.6055 100.528 48.6889 100.174C48.7654 99.8263 48.7906 99.5145 48.7644 99.2383C48.7248 98.9617 48.6266 98.7407 48.4697 98.5752C48.424 98.5269 48.3879 98.4957 48.3614 98.4816C48.1494 98.3684 47.9051 98.3316 47.6285 98.3712C47.3385 98.4105 47.0365 98.52 46.7226 98.6997C46.4021 98.8725 46.0799 99.1125 45.7558 99.4197C45.4252 99.7199 45.1098 100.078 44.8097 100.493C44.5303 100.889 44.2979 101.286 44.1125 101.684C43.9206 102.075 43.7864 102.445 43.7099 102.792C43.6265 103.146 43.6011 103.464 43.6338 103.747C43.6666 104.031 43.7581 104.251 43.9084 104.41C43.9541 104.458 43.9935 104.493 44.0265 104.514C44.2247 104.64 44.4689 104.684 44.7589 104.644C45.0354 104.605 45.3374 104.495 45.6648 104.316C45.9787 104.136 46.3044 103.893 46.6419 103.586C46.9729 103.273 47.2884 102.908 47.5885 102.493Z" fill="#F7F8F7"/>
<path d="M35.0308 97.823L43.0024 92.7259C43.2105 92.5928 43.3599 92.4297 43.4505 92.2364C43.5332 92.0482 43.5353 91.8664 43.457 91.691L44.9539 94.0321C44.8275 93.8873 44.6616 93.813 44.4561 93.8091C44.2426 93.8103 44.0319 93.8774 43.8238 94.0105L36.6325 98.6086C36.4244 98.7416 36.2791 98.9023 36.1964 99.0904C36.1058 99.2837 36.1036 99.4655 36.1899 99.6358L35.0308 97.823Z" fill="#F7F8F7"/>
<path d="M38.4049 90.2154C37.9019 90.4158 37.3999 90.529 36.8988 90.5548C36.3943 90.5717 35.926 90.5129 35.494 90.3783C35.0496 90.2383 34.6627 90.0244 34.3332 89.7364C33.9948 89.452 33.7448 89.1068 33.583 88.7008C33.4178 88.286 33.3619 87.8635 33.4153 87.4331C33.4565 86.9974 33.592 86.5804 33.8218 86.182C34.0393 85.7783 34.3388 85.4136 34.7203 85.0877C35.0982 84.753 35.5387 84.4854 36.0417 84.285C36.5448 84.0846 37.0485 83.9758 37.5531 83.9589C38.0541 83.933 38.5268 83.9901 38.9712 84.13C39.4032 84.2647 39.7884 84.4742 40.1267 84.7587C40.4615 85.0343 40.7116 85.3795 40.8769 85.7943C41.0386 86.2002 41.0945 86.6228 41.0446 87.062C40.9946 87.5012 40.8609 87.9226 40.6434 88.3263C40.4135 88.7247 40.1096 89.0912 39.7317 89.4259C39.3502 89.7518 38.908 90.0149 38.4049 90.2154ZM38.1502 88.6909C38.5563 88.4268 38.9192 88.1441 39.2389 87.8429C39.5586 87.5417 39.8227 87.2421 40.0313 86.9443C40.231 86.6499 40.3698 86.3696 40.4478 86.1033C40.5134 85.8317 40.504 85.5901 40.4196 85.3783C40.395 85.3165 40.373 85.2741 40.3536 85.2512C40.1986 85.0675 39.9854 84.9428 39.7138 84.8772C39.4298 84.8063 39.1088 84.7962 38.7506 84.8469C38.3889 84.8887 38.0007 84.9923 37.5859 85.1576C37.1676 85.314 36.7422 85.5296 36.3097 85.8042C35.9036 86.0683 35.5407 86.351 35.221 86.6522C34.8978 86.9446 34.6363 87.238 34.4366 87.5323C34.2281 87.8302 34.0866 88.1167 34.0121 88.3918C33.9377 88.6669 33.9409 88.9059 34.0218 89.1089C34.0464 89.1707 34.0701 89.2174 34.093 89.2492C34.2304 89.4399 34.441 89.5707 34.7249 89.6417C34.9965 89.7073 35.3176 89.7174 35.6881 89.672C36.0462 89.6213 36.4389 89.516 36.866 89.356C37.2896 89.1872 37.7177 88.9655 38.1502 88.6909Z" fill="#F7F8F7"/>
<path d="M38.8034 79.8811C38.7438 79.6985 38.6202 79.5651 38.4326 79.4811C38.2357 79.3986 38.0155 79.3779 37.7719 79.4189L32.2916 80.3413C32.048 80.3823 31.8514 80.4732 31.7017 80.614C31.5426 80.7564 31.4695 80.9228 31.4823 81.1133L31.1251 78.9915L32.4882 78.7621C32.1929 78.725 31.9367 78.6622 31.7195 78.5735C31.4913 78.4771 31.3045 78.3688 31.1591 78.2488C31.0027 78.121 30.883 77.9822 30.8 77.8324C30.717 77.6826 30.6636 77.5374 30.64 77.3969C30.6069 77.2002 30.6051 77.0464 30.6346 76.9354C30.6625 76.8151 30.6935 76.7136 30.7278 76.6307L32.1751 76.3871C31.9629 76.4999 31.8125 76.6649 31.7238 76.8821C31.6242 77.0916 31.5933 77.3087 31.6311 77.5335C31.6595 77.7022 31.7246 77.8598 31.8263 78.0064C31.9187 78.1547 32.0556 78.2809 32.2369 78.3853C32.4167 78.4803 32.6393 78.5439 32.9049 78.5763C33.1611 78.6103 33.4671 78.5973 33.8231 78.5374L37.5188 77.9153C37.7624 77.8743 37.9637 77.7826 38.1228 77.6403C38.2725 77.4995 38.3456 77.333 38.3422 77.1409L38.8034 79.8811Z" fill="#F7F8F7"/>
<path d="M34.0814 71.8507C33.4836 71.8234 32.9465 71.7132 32.4704 71.5203C31.9946 71.3178 31.5929 71.057 31.2651 70.7376C30.9374 70.4183 30.6927 70.0505 30.531 69.6342C30.3694 69.2179 30.2992 68.7773 30.3205 68.3123C30.34 67.8852 30.4143 67.5082 30.5434 67.1813C30.6724 66.8543 30.8323 66.5811 31.0231 66.3616C31.2047 66.1322 31.4073 65.9655 31.6308 65.8616C31.8452 65.7478 32.0568 65.6956 32.2656 65.7052C32.6167 65.7212 32.8942 65.8908 33.0982 66.214C33.2926 66.5367 33.4243 67.0895 33.4931 67.8725C33.5232 68.2543 33.6216 68.5964 33.7885 68.8988C33.9553 69.2012 34.163 69.4437 34.4114 69.6262C34.6598 69.8088 34.9352 69.9212 35.2376 69.9636C35.54 70.0059 35.851 69.9631 36.1707 69.8351C36.6668 69.5915 37.0655 69.2959 37.3667 68.9483C37.6588 68.5908 37.8137 68.2175 37.8315 67.8284C37.842 67.6006 37.8038 67.3944 37.7172 67.2098C37.6215 67.0152 37.496 66.8478 37.3407 66.7076C37.1764 66.5574 36.9968 66.4303 36.8019 66.3263C36.6069 66.2223 36.4109 66.142 36.2138 66.0854L36.2242 65.8577C36.9566 66.0624 37.4746 66.3808 37.7781 66.8132C38.0722 67.245 38.2043 67.7884 38.1743 68.4432C38.15 68.9746 38.028 69.4588 37.8083 69.8957C37.5891 70.3231 37.2967 70.6854 36.9313 70.9825C36.5563 71.2792 36.1275 71.5068 35.6448 71.6654C35.153 71.8141 34.6318 71.8759 34.0814 71.8507ZM35.1113 70.2288C35.1497 70.2211 35.1978 70.209 35.2556 70.1926C34.8006 70.1623 34.3958 69.9679 34.0413 69.6093C33.6777 69.2408 33.4424 68.7736 33.3351 68.2076C33.2192 67.6222 33.0425 67.2242 32.8048 67.0137C32.5582 66.7932 32.283 66.676 31.9793 66.6621C31.837 66.6556 31.6838 66.6771 31.5199 66.7267C31.3564 66.7667 31.2006 66.8452 31.0527 66.9621C30.9051 67.0694 30.7843 67.2161 30.6902 67.402C30.5866 67.5874 30.5285 67.8177 30.5159 68.093C30.4973 68.501 30.6231 68.8682 30.8935 69.1943C31.1548 69.5106 31.5093 69.7646 31.9571 69.9562C32.3953 70.1474 32.8937 70.2701 33.4523 70.3241C34.0014 70.3778 34.5544 70.346 35.1113 70.2288Z" fill="#F7F8F7"/>
<path d="M40.2642 56.5995C40.3321 56.3998 40.3043 56.2002 40.181 56.0006C40.0619 55.7925 39.8791 55.6269 39.6327 55.5038L32.1615 51.7742C31.915 51.6511 31.6771 51.6067 31.4477 51.6408C31.214 51.6622 31.0335 51.7579 30.9062 51.9279L31.9945 49.7478C32.6235 50.0618 33.212 50.2759 33.7602 50.3903C34.3125 50.4962 34.8351 50.5341 35.3279 50.504C35.8207 50.474 36.2923 50.3908 36.7425 50.2546C37.1843 50.1141 37.609 49.9545 38.0167 49.7758C38.4287 49.5886 38.8258 49.3993 39.2081 49.2079C39.5818 49.0122 39.9577 48.8442 40.3357 48.7037C40.7052 48.5591 41.0748 48.4569 41.4444 48.3971C41.8182 48.3289 42.1963 48.3372 42.5787 48.4219L35.5793 44.9277C35.3328 44.8047 35.0949 44.7602 34.8655 44.7944C34.6318 44.8158 34.4492 44.9157 34.3176 45.0942L35.075 43.5771C35.0157 43.781 35.0455 43.9871 35.1646 44.1952C35.2794 44.3905 35.4601 44.5497 35.7066 44.6728L43.1777 48.4024C43.4242 48.5255 43.6643 48.5763 43.898 48.5549C44.1358 48.525 44.3142 48.4229 44.4331 48.2487L43.3447 50.4288C42.7072 50.1106 42.1039 49.958 41.5346 49.9711C40.9653 49.9842 40.4067 50.0823 39.8588 50.2653C39.3066 50.4356 38.7608 50.6569 38.2214 50.9291C37.6863 51.1929 37.1341 51.4269 36.5649 51.6312C35.9873 51.8312 35.3862 51.9612 34.7617 52.0211C34.1287 52.0767 33.4574 51.9858 32.7478 51.7483L39.7599 55.2489C40.0064 55.3719 40.2465 55.4227 40.4802 55.4013C40.718 55.3714 40.8985 55.2651 41.0216 55.0824L40.2642 56.5995Z" fill="#F7F8F7"/>
<path d="M43.5823 43.4362C43.1783 43.0757 42.8528 42.677 42.606 42.2403C42.3654 41.7964 42.2089 41.3512 42.1364 40.9045C42.0631 40.4444 42.0817 40.0027 42.1922 39.5792C42.2956 39.1495 42.4928 38.7716 42.7837 38.4455C43.081 38.1124 43.4341 37.8736 43.843 37.7293C44.2512 37.5715 44.6848 37.5064 45.1439 37.5342C45.6023 37.5485 46.0624 37.6535 46.5243 37.8492C46.9926 38.0379 47.4287 38.3125 47.8327 38.673C48.2368 39.0336 48.559 39.4358 48.7996 39.8796C49.0465 40.3163 49.2065 40.7648 49.2798 41.2248C49.3523 41.6715 49.3369 42.1097 49.2335 42.5395C49.1364 42.9622 48.9392 43.3401 48.642 43.6732C48.351 43.9993 47.9979 44.238 47.5826 44.3895C47.1674 44.5409 46.7306 44.6095 46.2722 44.5952C45.8131 44.5675 45.3495 44.4593 44.8812 44.2706C44.4193 44.0749 43.9863 43.7967 43.5823 43.4362ZM44.8325 42.5274C45.2502 42.7728 45.6652 42.9712 46.0775 43.1227C46.4898 43.2742 46.8758 43.3767 47.2354 43.4303C47.588 43.4775 47.9008 43.4765 48.1738 43.4273C48.4461 43.3648 48.6582 43.2484 48.81 43.0783C48.8542 43.0287 48.8823 42.9901 48.8942 42.9625C48.9893 42.7418 49.0056 42.4953 48.943 42.223C48.8796 41.9373 48.7453 41.6455 48.54 41.3477C48.341 41.0428 48.0749 40.7417 47.7417 40.4444C47.4149 40.14 47.0321 39.8557 46.5932 39.5913C46.1755 39.3459 45.7605 39.1475 45.3482 38.996C44.9422 38.8375 44.5629 38.7346 44.2104 38.6873C43.8507 38.6338 43.5312 38.6351 43.2518 38.6914C42.9725 38.7477 42.76 38.8573 42.6146 39.0203C42.5703 39.0699 42.539 39.1121 42.5208 39.1468C42.4115 39.3548 42.3886 39.6017 42.4519 39.8874C42.5145 40.1597 42.6489 40.4515 42.855 40.7627C43.0603 41.0605 43.3299 41.3648 43.6638 41.6755C44.004 41.9791 44.3936 42.2631 44.8325 42.5274Z" fill="#F7F8F7"/>
<path d="M48.5278 33.0309L50.8571 31.5158C50.7082 31.6354 50.6525 31.7849 50.69 31.9645C50.7355 32.1389 50.86 32.3129 51.0635 32.4865L55.3526 36.2584C55.1904 35.9219 55.0849 35.5769 55.0363 35.2232C54.9955 34.8644 54.9546 34.5227 54.9135 34.1981C54.8804 33.8684 54.8259 33.5582 54.7502 33.2675C54.6744 32.9768 54.5204 32.7313 54.2882 32.531L52.8912 31.2978C52.6773 31.1083 52.4586 30.9899 52.2351 30.9426C52.0117 30.8952 51.8152 30.9154 51.6455 31.0031L53.9749 29.4881C53.826 29.6076 53.7703 29.7571 53.8078 29.9367C53.8532 30.1112 53.9777 30.2852 54.1813 30.4587L58.4703 34.2306C58.285 33.8412 58.1686 33.4183 58.1211 32.9619C58.0736 32.5055 58.0418 32.0559 58.0257 31.613C58.0125 31.157 57.9805 30.7245 57.9298 30.3155C57.8739 29.8986 57.7476 29.5388 57.5508 29.2362C57.4057 29.0132 57.196 28.804 56.9215 28.6085C56.6551 28.4078 56.3219 28.2789 55.922 28.2217L56.8179 27.639C56.9486 27.7353 57.0633 27.842 57.1621 27.9591C57.2637 28.063 57.3741 28.2065 57.4932 28.3897C57.7314 28.756 57.901 29.1387 58.0019 29.5377C58.0976 29.9288 58.1616 30.3234 58.194 30.7217C58.2263 31.1199 58.2456 31.5154 58.2516 31.9081C58.2577 32.3007 58.2877 32.6779 58.3416 33.0395C58.3954 33.4011 58.4877 33.7433 58.6184 34.0663C58.7492 34.3892 58.9567 34.6735 59.2411 34.9192L57.963 35.7505L54.9144 33.0757C55.0172 33.3034 55.0812 33.5848 55.1064 33.9197C55.1316 34.2546 55.1711 34.6029 55.225 34.9645C55.2736 35.3181 55.3606 35.6696 55.4857 36.0188C55.6109 36.368 55.8234 36.6774 56.1234 36.947L54.8333 37.786L49.7734 33.3256C49.5595 33.1361 49.3408 33.0177 49.1174 32.9704C48.8939 32.923 48.6974 32.9432 48.5278 33.0309Z" fill="#F7F8F7"/>
<path d="M65.329 28.2238C65.367 27.947 65.478 27.7007 65.6618 27.485C65.8456 27.2693 66.1021 27.1373 66.4312 27.0889C66.5996 27.0593 66.787 27.0552 66.9933 27.0766C67.1997 27.0981 67.422 27.1554 67.6603 27.2485C67.8986 27.3415 68.1217 27.4034 68.3297 27.4343C68.5361 27.4558 68.7188 27.4525 68.8778 27.4245C69.1211 27.3816 69.3076 27.2908 69.4375 27.1522C69.5658 27.0041 69.6321 26.8333 69.6366 26.6396L69.6811 26.6462C69.6921 26.6539 69.7031 26.6616 69.7141 26.6693C69.7329 26.666 69.7524 26.6674 69.7728 26.6734C69.7926 26.7857 69.7829 26.9225 69.7438 27.0837C69.7124 27.2339 69.6474 27.3852 69.5489 27.5377C69.4581 27.6791 69.3359 27.8067 69.1824 27.9206C69.0288 28.0345 68.8444 28.1104 68.6293 28.1484C68.3486 28.1978 68.0234 28.1587 67.6536 28.031C67.0532 27.7992 66.5613 27.7171 66.1777 27.7848C65.8689 27.8392 65.6268 27.9977 65.4512 28.2601L65.329 28.2238Z" fill="#F7F8F7"/>
<path d="M84.7031 19.8665L85.0934 21.1145L85.008 21.11C84.8708 20.8268 84.6977 20.594 84.4886 20.4117C84.289 20.2298 84.0469 20.1313 83.7623 20.1162L80.5891 19.9475L80.3349 24.7287L82.2274 24.8293C82.5025 24.8439 82.7382 24.7946 82.9345 24.6814C83.1408 24.5591 83.2684 24.3947 83.3175 24.188L83.2282 25.8671C83.2014 25.6564 83.0916 25.4841 82.899 25.3502C82.7163 25.2073 82.4874 25.1285 82.2123 25.1139L80.3198 25.0133L80.0648 29.8087L83.423 29.9872C83.6981 30.0018 83.9446 29.9293 84.1623 29.7696C84.3901 29.601 84.5872 29.3831 84.7536 29.1161L84.839 29.1206L84.3328 30.3209L77.6164 29.9639C77.8266 29.9465 77.9987 29.8415 78.1326 29.6488C78.276 29.4567 78.355 29.2231 78.3696 28.948L78.8129 20.6094C78.8276 20.3343 78.7735 20.0983 78.6508 19.9015C78.5381 19.6958 78.3784 19.5684 78.1717 19.5193L84.7031 19.8665Z" fill="#F7F8F7"/>
<path d="M91.5479 28.3209L90.9667 25.1226C90.9102 24.8262 90.7882 24.564 90.6008 24.336C90.4253 24.1019 90.2497 23.9473 90.074 23.8724L93.0657 24.8094C92.8787 24.7707 92.7174 24.8247 92.5819 24.9714C92.4492 25.1091 92.4094 25.3156 92.4625 25.591L92.9327 28.1424C93.2467 28.0616 93.5608 27.9807 93.8748 27.8999C94.1978 27.8219 94.4906 27.7294 94.7531 27.6224C95.0274 27.5093 95.261 27.3833 95.4537 27.2446C95.6465 27.1059 95.7741 26.9368 95.8366 26.7373C95.8962 26.5469 95.8926 26.3517 95.8259 26.1516C95.7592 25.9515 95.6051 25.744 95.3638 25.5291L96.3701 25.8442C96.3927 25.931 96.402 26.0284 96.398 26.1367C96.403 26.2478 96.3828 26.3758 96.3374 26.5209C96.2409 26.8291 96.0727 27.08 95.8329 27.2737C95.5959 27.4583 95.3178 27.6151 94.9987 27.7441C94.6914 27.8669 94.3598 27.9721 94.0039 28.0598C93.6508 28.1383 93.3053 28.2242 92.9675 28.3175L93.5893 31.7675C93.643 32.073 93.759 32.3383 93.9373 32.5634C94.1248 32.7913 94.3049 32.9473 94.4777 33.0312L91.4996 32.0986C91.6895 32.1282 91.8462 32.0727 91.9698 31.9323C92.1054 31.7856 92.1466 31.5745 92.0935 31.299L91.5826 28.496C91.2567 28.5831 90.9248 28.6733 90.587 28.7666C90.2583 28.8627 89.9448 28.9736 89.6466 29.0992C89.3604 29.2186 89.1121 29.3599 88.9017 29.523C88.6914 29.6861 88.5521 29.8764 88.484 30.094C88.4243 30.2843 88.4279 30.4796 88.4947 30.6797C88.5642 30.8707 88.7183 31.0782 88.9567 31.3022L87.9504 30.9871C87.9278 30.9003 87.914 30.8014 87.909 30.6904C87.913 30.5821 87.9391 30.4509 87.9874 30.2968C88.0925 29.9614 88.2723 29.6892 88.5269 29.4802C88.7905 29.2741 89.0878 29.1034 89.4189 28.9682C89.7618 28.8267 90.1172 28.7091 90.4851 28.6152C90.862 28.5242 91.2163 28.4261 91.5479 28.3209Z" fill="#F7F8F7"/>
<path d="M101.32 28.1107L103.159 29.2286L102.729 29.9348C102.947 29.7227 103.209 29.5931 103.516 29.546C103.831 29.5039 104.13 29.5692 104.414 29.7419C104.698 29.9146 104.948 30.1613 105.165 30.4819C105.389 30.8075 105.549 31.1766 105.642 31.5893C105.741 31.994 105.76 32.4283 105.701 32.8923C105.641 33.3562 105.475 33.8115 105.204 34.2579C104.908 34.7449 104.596 35.1113 104.269 35.357C103.949 35.6077 103.618 35.7784 103.273 35.8693C102.934 35.952 102.583 35.9719 102.22 35.929C101.87 35.883 101.516 35.8068 101.158 35.7004C100.934 35.6307 100.719 35.5724 100.514 35.5255C100.314 35.4706 100.124 35.4442 99.9449 35.4464C99.7706 35.4405 99.6099 35.4762 99.4628 35.5536C99.3158 35.6309 99.183 35.767 99.0645 35.9618L98.4279 37.0089C98.2995 37.22 98.2397 37.4281 98.2482 37.6335C98.2568 37.8388 98.3349 38.003 98.4824 38.1261L96.1081 36.6825C96.2853 36.7568 96.467 36.7505 96.6532 36.6637C96.8395 36.5768 96.9967 36.4278 97.1251 36.2168L101.375 29.2279C101.503 29.0169 101.563 28.8087 101.554 28.6033C101.551 28.3899 101.472 28.2257 101.32 28.1107ZM102.278 30.6775L99.4347 35.353C99.598 35.2855 99.7628 35.2523 99.9289 35.2533C100.103 35.2592 100.278 35.2822 100.454 35.3224C100.635 35.3544 100.81 35.3945 100.981 35.4428C101.16 35.496 101.337 35.5426 101.513 35.5827C101.76 35.6331 101.998 35.6166 102.227 35.5332C102.469 35.4466 102.692 35.2989 102.897 35.0899C103.115 34.8778 103.316 34.6109 103.5 34.2894C103.693 33.9729 103.861 33.6138 104.005 33.2122C104.147 32.8318 104.257 32.4594 104.334 32.0949C104.411 31.7304 104.448 31.3966 104.443 31.0935C104.446 30.7954 104.41 30.5345 104.335 30.3109C104.26 30.0872 104.141 29.926 103.979 29.8273C103.824 29.7335 103.661 29.7008 103.488 29.7291C103.32 29.7493 103.159 29.8127 103.005 29.9193C102.857 30.0178 102.717 30.1384 102.585 30.281C102.459 30.4155 102.357 30.5477 102.278 30.6775Z" fill="#F7F8F7"/>
<path d="M108.212 37.2902C108.594 36.9058 109.009 36.6019 109.458 36.3785C109.914 36.1617 110.367 36.029 110.817 35.9802C111.28 35.9314 111.72 35.9734 112.137 36.1061C112.561 36.2321 112.928 36.449 113.238 36.7568C113.555 37.0713 113.775 37.4365 113.897 37.8525C114.033 38.2685 114.075 38.7049 114.023 39.1619C113.985 39.6189 113.856 40.0728 113.636 40.5237C113.423 40.9813 113.125 41.4023 112.744 41.7867C112.362 42.1711 111.944 42.4716 111.488 42.6884C111.039 42.9118 110.582 43.0479 110.119 43.0967C109.669 43.1455 109.232 43.1069 108.809 42.9809C108.392 42.8616 108.025 42.6447 107.708 42.3302C107.398 42.0224 107.178 41.6572 107.049 41.2345C106.919 40.8118 106.874 40.3719 106.913 39.915C106.965 39.458 107.097 39.0007 107.31 38.5431C107.53 38.0922 107.831 37.6745 108.212 37.2902ZM109.054 38.5867C108.787 38.9908 108.566 39.3947 108.393 39.7984C108.22 40.2021 108.097 40.5822 108.025 40.9385C107.959 41.288 107.944 41.6004 107.978 41.8757C108.026 42.151 108.131 42.3689 108.293 42.5295C108.34 42.5763 108.377 42.6064 108.404 42.6197C108.62 42.7264 108.865 42.7556 109.14 42.7075C109.429 42.6594 109.727 42.5407 110.036 42.3514C110.351 42.1688 110.665 41.919 110.98 41.6021C111.301 41.2918 111.605 40.9246 111.893 40.5003C112.16 40.0962 112.38 39.6923 112.553 39.2886C112.733 38.8915 112.855 38.5182 112.921 38.1687C112.994 37.8124 113.009 37.4932 112.968 37.2112C112.927 36.9293 112.828 36.7113 112.673 36.5574C112.626 36.5106 112.586 36.4772 112.552 36.4571C112.35 36.337 112.105 36.301 111.816 36.3492C111.541 36.3973 111.242 36.516 110.921 36.7053C110.612 36.8946 110.294 37.1477 109.966 37.4647C109.645 37.7884 109.341 38.1624 109.054 38.5867Z" fill="#F7F8F7"/>
<path d="M121.749 42.8686L113.937 48.208C113.733 48.3473 113.589 48.515 113.504 48.711C113.428 48.9016 113.431 49.0834 113.515 49.2563L111.947 46.9623C112.077 47.1031 112.245 47.1723 112.451 47.1699C112.664 47.1621 112.873 47.0886 113.077 46.9492L120.124 42.1325C120.327 41.9931 120.468 41.8281 120.545 41.6375C120.629 41.4416 120.626 41.2598 120.534 41.0922L121.749 42.8686Z" fill="#F7F8F7"/>
<path d="M118.61 50.5762C119.107 50.3604 119.605 50.2319 120.105 50.1907C120.609 50.1583 121.079 50.2027 121.515 50.324C121.963 50.4502 122.357 50.6522 122.695 50.9299C123.042 51.2039 123.302 51.5413 123.477 51.942C123.654 52.3515 123.723 52.7722 123.683 53.204C123.655 53.6407 123.533 54.0617 123.315 54.467C123.11 54.8772 122.822 55.2509 122.451 55.5884C122.083 55.9345 121.651 56.2154 121.155 56.4312C120.658 56.647 120.158 56.7712 119.654 56.8036C119.154 56.8448 118.68 56.8023 118.231 56.676C117.795 56.5547 117.404 56.3571 117.057 56.0832C116.714 55.8179 116.453 55.4806 116.275 55.0711C116.101 54.6703 116.032 54.2496 116.069 53.8091C116.105 53.3686 116.226 52.9432 116.431 52.5331C116.649 52.1278 116.941 51.7521 117.309 51.406C117.68 51.0686 118.114 50.792 118.61 50.5762ZM118.912 52.0921C118.514 52.3686 118.16 52.6622 117.85 52.9731C117.539 53.2841 117.285 53.5916 117.085 53.8957C116.895 54.196 116.764 54.4805 116.695 54.749C116.637 55.0225 116.654 55.2638 116.745 55.4729C116.772 55.5339 116.795 55.5755 116.815 55.5979C116.976 55.7767 117.193 55.8947 117.466 55.952C117.752 56.0142 118.073 56.0144 118.43 55.9528C118.79 55.8998 119.175 55.7844 119.584 55.6065C119.998 55.4372 120.416 55.2087 120.84 54.921C121.238 54.6445 121.592 54.3509 121.902 54.04C122.216 53.7378 122.469 53.4365 122.659 53.1362C122.859 52.832 122.991 52.5414 123.057 52.2641C123.123 51.9868 123.113 51.748 123.025 51.5476C122.999 51.4866 122.974 51.4406 122.95 51.4095C122.807 51.2232 122.592 51.0989 122.306 51.0367C122.033 50.9794 121.712 50.9792 121.343 51.0359C120.986 51.0976 120.597 51.2149 120.175 51.3879C119.757 51.5696 119.336 51.8044 118.912 52.0921Z" fill="#F7F8F7"/>
<path d="M118.53 60.9178C118.595 61.0985 118.722 61.228 118.912 61.3063C119.112 61.3826 119.333 61.3966 119.575 61.3481L125.024 60.2579C125.266 60.2095 125.46 60.1126 125.606 59.9673C125.76 59.8201 125.828 59.6515 125.809 59.4614L126.232 61.5713L124.876 61.8425C125.172 61.8704 125.43 61.9254 125.65 62.0073C125.881 62.0967 126.071 62.1992 126.22 62.3147C126.381 62.4377 126.505 62.5727 126.592 62.7199C126.68 62.8671 126.737 63.0105 126.765 63.1503C126.805 63.3459 126.811 63.4996 126.785 63.6114C126.761 63.7325 126.733 63.8349 126.701 63.9188L125.262 64.2067C125.471 64.0875 125.616 63.9179 125.698 63.6981C125.791 63.4857 125.815 63.2677 125.771 63.0441C125.737 62.8764 125.667 62.7209 125.561 62.5774C125.464 62.4321 125.323 62.3101 125.139 62.2114C124.956 62.1219 124.732 62.0651 124.465 62.0409C124.208 62.0149 123.903 62.0372 123.549 62.1081L119.874 62.8432C119.632 62.8917 119.433 62.9895 119.279 63.1367C119.133 63.282 119.065 63.4506 119.075 63.6425L118.53 60.9178Z" fill="#F7F8F7"/>
<path d="M123.495 68.7996C124.094 68.8086 124.634 68.9022 125.116 69.0804C125.597 69.2682 126.007 69.5166 126.344 69.8257C126.682 70.1348 126.938 70.4949 127.112 70.906C127.286 71.3172 127.37 71.7555 127.363 72.2209C127.356 72.6484 127.294 73.0275 127.175 73.3582C127.056 73.689 126.904 73.967 126.721 74.1922C126.546 74.4271 126.349 74.5999 126.128 74.7106C125.918 74.831 125.708 74.8896 125.499 74.8865C125.147 74.8812 124.865 74.7202 124.651 74.4035C124.447 74.0869 124.298 73.5383 124.205 72.7579C124.164 72.3772 124.055 72.0383 123.879 71.7411C123.702 71.4439 123.487 71.2079 123.234 71.0331C122.98 70.8583 122.701 70.7544 122.397 70.7213C122.094 70.6882 121.784 70.7406 121.469 70.8784C120.98 71.1371 120.591 71.4448 120.301 71.8014C120.02 72.1678 119.876 72.5456 119.87 72.9351C119.867 73.1631 119.911 73.368 120.004 73.5499C120.105 73.7414 120.236 73.9049 120.395 74.0403C120.564 74.1854 120.747 74.3069 120.946 74.4049C121.144 74.5028 121.342 74.5771 121.541 74.6276L121.537 74.8555C120.799 74.6734 120.271 74.371 119.955 73.9482C119.648 73.5256 119.499 72.9865 119.509 72.3311C119.517 71.7992 119.624 71.3115 119.83 70.868C120.036 70.4341 120.317 70.063 120.673 69.7548C121.039 69.4468 121.461 69.2061 121.938 69.0327C122.425 68.869 122.944 68.7913 123.495 68.7996ZM122.515 70.4523C122.477 70.4612 122.43 70.4748 122.372 70.4929C122.828 70.5092 123.239 70.6912 123.604 71.0387C123.979 71.3958 124.228 71.8556 124.353 72.418C124.487 72.9996 124.676 73.392 124.92 73.5952C125.173 73.808 125.452 73.9167 125.755 73.9212C125.898 73.9234 126.05 73.8971 126.213 73.8426C126.375 73.7975 126.528 73.7143 126.673 73.593C126.817 73.4811 126.933 73.3308 127.021 73.1421C127.119 72.9536 127.17 72.7216 127.174 72.4461C127.18 72.0377 127.043 71.6746 126.763 71.3568C126.492 71.0488 126.13 70.8058 125.677 70.628C125.233 70.4503 124.731 70.343 124.171 70.3061C123.62 70.2693 123.069 70.3181 122.515 70.4523Z" fill="#F7F8F7"/>
<path d="M117.784 84.2333C117.722 84.435 117.756 84.6337 117.886 84.8295C118.011 85.0338 118.199 85.1937 118.449 85.3091L126.031 88.8077C126.281 88.9231 126.52 88.9603 126.749 88.9191C126.982 88.8906 127.159 88.7894 127.281 88.6155L126.26 90.828C125.622 90.5335 125.027 90.3375 124.476 90.24C123.92 90.1512 123.397 90.1293 122.905 90.1745C122.414 90.2196 121.945 90.3172 121.499 90.4672C121.062 90.6212 120.642 90.7937 120.24 90.9848C119.834 91.1846 119.443 91.386 119.067 91.5891C118.699 91.7961 118.329 91.9756 117.955 92.1276C117.59 92.2836 117.224 92.397 116.856 92.4681C116.485 92.5477 116.107 92.5511 115.722 92.4781L122.825 95.7558C123.075 95.8712 123.314 95.9084 123.543 95.8672C123.776 95.8387 123.955 95.7332 124.081 95.5507L123.371 97.0904C123.424 96.8847 123.387 96.6797 123.262 96.4753C123.141 96.2836 122.956 96.13 122.706 96.0146L115.124 92.516C114.873 92.4006 114.632 92.3571 114.399 92.3857C114.162 92.4229 113.987 92.5304 113.874 92.7082L114.894 90.4957C115.541 90.7942 116.149 90.9282 116.718 90.8976C117.286 90.867 117.842 90.7518 118.384 90.5521C118.931 90.3649 119.469 90.127 120 89.8383C120.527 89.5583 121.072 89.3075 121.634 89.0858C122.205 88.8681 122.802 88.7198 123.425 88.6408C124.056 88.5657 124.729 88.636 125.446 88.8516L118.33 85.5679C118.079 85.4525 117.838 85.409 117.605 85.4376C117.368 85.4748 117.191 85.5866 117.074 85.773L117.784 84.2333Z" fill="#F7F8F7"/>
<path d="M114.871 97.4923C115.286 97.8402 115.624 98.2287 115.884 98.6576C116.138 99.0939 116.308 99.5341 116.394 99.9784C116.482 100.436 116.477 100.878 116.379 101.305C116.289 101.737 116.103 102.121 115.823 102.456C115.536 102.798 115.19 103.048 114.786 103.205C114.383 103.375 113.951 103.453 113.491 103.439C113.033 103.439 112.57 103.348 112.102 103.167C111.628 102.993 111.184 102.732 110.769 102.384C110.354 102.036 110.02 101.644 109.766 101.207C109.505 100.778 109.332 100.335 109.244 99.8774C109.158 99.4332 109.16 98.9947 109.25 98.562C109.334 98.1365 109.52 97.7528 109.807 97.4107C110.087 97.0758 110.433 96.8264 110.844 96.6622C111.254 96.4981 111.688 96.4161 112.147 96.4164C112.607 96.43 113.074 96.5239 113.547 96.6981C114.015 96.8796 114.456 97.1443 114.871 97.4923ZM113.65 98.439C113.225 98.2065 112.804 98.0209 112.387 97.8822C111.97 97.7434 111.581 97.6528 111.22 97.6103C110.866 97.5739 110.554 97.5845 110.282 97.642C110.012 97.713 109.804 97.8358 109.657 98.0104C109.614 98.0614 109.587 98.1008 109.576 98.1288C109.488 98.3523 109.479 98.5992 109.55 98.8695C109.622 99.1531 109.766 99.4406 109.98 99.732C110.188 100.031 110.463 100.323 110.806 100.61C111.142 100.905 111.533 101.177 111.98 101.428C112.405 101.66 112.826 101.846 113.242 101.985C113.653 102.131 114.035 102.222 114.389 102.258C114.75 102.301 115.07 102.289 115.347 102.225C115.625 102.16 115.834 102.044 115.974 101.876C116.017 101.825 116.047 101.782 116.064 101.747C116.167 101.536 116.182 101.288 116.11 101.005C116.039 100.734 115.896 100.447 115.68 100.142C115.466 99.8508 115.187 99.5549 114.844 99.2546C114.494 98.9616 114.096 98.6897 113.65 98.439Z" fill="#F7F8F7"/>
<path d="M110.248 108.045L107.966 109.63C108.111 109.506 108.162 109.355 108.119 109.177C108.068 109.004 107.939 108.834 107.73 108.666L103.327 105.028C103.499 105.359 103.615 105.701 103.675 106.053C103.727 106.41 103.778 106.751 103.829 107.074C103.872 107.402 103.936 107.711 104.021 107.999C104.105 108.287 104.267 108.528 104.505 108.721L105.939 109.911C106.159 110.094 106.381 110.205 106.606 110.246C106.831 110.286 107.027 110.26 107.194 110.167L104.912 111.753C105.057 111.629 105.108 111.478 105.065 111.299C105.014 111.126 104.884 110.956 104.676 110.789L100.273 107.151C100.47 107.534 100.599 107.953 100.661 108.408C100.722 108.863 100.768 109.311 100.798 109.753C100.825 110.209 100.87 110.64 100.933 111.047C101.002 111.462 101.139 111.818 101.345 112.114C101.497 112.333 101.713 112.536 101.993 112.722C102.266 112.915 102.603 113.034 103.004 113.078L102.127 113.688C101.993 113.596 101.875 113.493 101.773 113.379C101.668 113.278 101.554 113.138 101.429 112.959C101.179 112.6 100.998 112.223 100.885 111.827C100.778 111.439 100.701 111.046 100.657 110.649C100.612 110.252 100.581 109.858 100.563 109.465C100.545 109.073 100.503 108.697 100.438 108.337C100.373 107.977 100.27 107.638 100.13 107.319C99.9893 107.001 99.7731 106.723 99.4813 106.486L100.733 105.616L103.863 108.196C103.753 107.971 103.68 107.692 103.645 107.358C103.609 107.024 103.559 106.677 103.494 106.317C103.435 105.965 103.337 105.617 103.201 105.272C103.065 104.926 102.843 104.624 102.535 104.363L103.799 103.485L108.993 107.788C109.213 107.971 109.435 108.083 109.66 108.123C109.885 108.164 110.081 108.137 110.248 108.045Z" fill="#F7F8F7"/>
<path d="M92.9702 113.482C92.9407 113.759 92.8373 114.009 92.6602 114.23C92.4831 114.451 92.2308 114.591 91.9033 114.65C91.7359 114.685 91.5488 114.694 91.3418 114.679C91.1349 114.664 90.9109 114.614 90.6699 114.528C90.4289 114.442 90.204 114.387 89.9951 114.363C89.7882 114.348 89.6057 114.357 89.4476 114.39C89.2057 114.44 89.022 114.536 88.8965 114.679C88.7728 114.831 88.7118 115.004 88.7133 115.197L88.6685 115.192C88.6573 115.185 88.646 115.177 88.6348 115.17C88.6162 115.174 88.5966 115.173 88.5761 115.168C88.5529 115.056 88.5583 114.919 88.5925 114.757C88.6192 114.606 88.6795 114.452 88.7733 114.297C88.8598 114.153 88.978 114.021 89.128 113.903C89.2779 113.784 89.4599 113.703 89.6738 113.658C89.9528 113.6 90.2791 113.629 90.6526 113.746C91.2598 113.959 91.7541 114.026 92.1354 113.947C92.4423 113.883 92.6795 113.717 92.8469 113.449L92.9702 113.482Z" fill="#F7F8F7"/>
<path d="M61.986 70.5362C71.1557 69.913 78.4559 62.6129 79.0791 53.4432C79.7023 62.6129 87.0024 69.913 96.1721 70.5362C87.0024 71.1594 79.7023 78.4596 79.0791 87.6293C78.4559 78.4596 71.1557 71.1594 61.986 70.5362Z" fill="#F7F8F7"/>
<mask id="path-26-inside-1_102_1191" fill="white">
<path d="M109.53 130.483C97.558 136.922 83.9209 139.596 70.4037 138.156C56.8866 136.715 44.1194 131.226 33.7737 122.409C23.4279 113.591 15.9857 101.855 12.4213 88.7366C8.85696 75.6186 9.33656 61.7299 13.7973 48.889L14.4398 49.1121C10.0239 61.8237 9.54914 75.5724 13.0776 88.5583C16.606 101.544 23.9733 113.162 34.2148 121.891C44.4563 130.62 57.0949 136.053 70.4758 137.479C83.8568 138.906 97.3565 136.258 109.208 129.884L109.53 130.483Z"/>
</mask>
<path d="M109.53 130.483C97.558 136.922 83.9209 139.596 70.4037 138.156C56.8866 136.715 44.1194 131.226 33.7737 122.409C23.4279 113.591 15.9857 101.855 12.4213 88.7366C8.85696 75.6186 9.33656 61.7299 13.7973 48.889L14.4398 49.1121C10.0239 61.8237 9.54914 75.5724 13.0776 88.5583C16.606 101.544 23.9733 113.162 34.2148 121.891C44.4563 130.62 57.0949 136.053 70.4758 137.479C83.8568 138.906 97.3565 136.258 109.208 129.884L109.53 130.483Z" fill="#F7F8F7" stroke="#F7F8F7" stroke-width="1.42498" mask="url(#path-26-inside-1_102_1191)"/>
<mask id="path-27-inside-2_102_1191" fill="white">
<path d="M47.0531 10.8264C58.9619 4.79347 72.3922 2.42734 85.6457 4.02727C98.8993 5.6272 111.381 11.1213 121.512 19.8149C131.643 28.5084 138.968 40.0109 142.562 52.8679C146.156 65.7248 145.856 79.3587 141.702 92.0454L141.055 91.8337C145.168 79.2748 145.465 65.7783 141.907 53.0509C138.35 40.3236 131.098 28.9369 121.069 20.331C111.04 11.725 98.6842 6.28624 85.5642 4.70244C72.4443 3.11862 59.1493 5.46091 47.3605 11.4331L47.0531 10.8264Z"/>
</mask>
<path d="M47.0531 10.8264C58.9619 4.79347 72.3922 2.42734 85.6457 4.02727C98.8993 5.6272 111.381 11.1213 121.512 19.8149C131.643 28.5084 138.968 40.0109 142.562 52.8679C146.156 65.7248 145.856 79.3587 141.702 92.0454L141.055 91.8337C145.168 79.2748 145.465 65.7783 141.907 53.0509C138.35 40.3236 131.098 28.9369 121.069 20.331C111.04 11.725 98.6842 6.28624 85.5642 4.70244C72.4443 3.11862 59.1493 5.46091 47.3605 11.4331L47.0531 10.8264Z" fill="#F7F8F7" stroke="#F7F8F7" stroke-width="1.42498" mask="url(#path-27-inside-2_102_1191)"/>
<path d="M45.0249 6.58887C45.818 10.1373 48.6075 12.9272 52.1558 13.7207C48.6079 14.5141 45.8183 17.3037 45.0249 20.8516C44.2314 17.3033 41.4415 14.5138 37.8931 13.7207C41.4418 12.9275 44.2317 10.1376 45.0249 6.58887Z" stroke="#F7F8F7" stroke-width="0.712488"/>
<path d="M147.269 93.001C144.255 95.0338 142.675 98.6488 143.23 102.242C141.197 99.228 137.582 97.6482 133.99 98.2036C137.004 96.1705 138.583 92.5553 138.028 88.9621C140.061 91.977 143.676 93.557 147.269 93.001Z" stroke="#F7F8F7" stroke-width="0.712488"/>
<path d="M111.905 134.426C111.05 130.892 108.213 128.151 104.651 127.419C108.185 126.564 110.925 123.727 111.657 120.166C112.512 123.699 115.35 126.44 118.912 127.171C115.377 128.026 112.636 130.864 111.905 134.426Z" stroke="#F7F8F7" stroke-width="0.712488"/>
<path d="M22.2518 44.5874C18.8139 45.7709 16.3522 48.854 15.959 52.4686C14.7752 49.0312 11.6922 46.5698 8.07794 46.1767C11.5157 44.9927 13.9769 41.9094 14.3697 38.2947C15.5534 41.733 18.6368 44.1946 22.2518 44.5874Z" stroke="#F7F8F7" stroke-width="0.712488"/>
</svg>
