<svg width="112" height="41" viewBox="0 0 112 41" fill="none" xmlns="http://www.w3.org/2000/svg">
<path d="M16.814 12.5345C19.3747 12.5345 21.496 13.3943 23.1673 15.1246C24.8387 16.8549 25.6744 19.2408 25.6744 22.2824V36.7376H19.6211V23.0347C19.6211 21.4656 19.2032 20.2619 18.3568 19.4343C17.5104 18.6068 16.3855 18.1876 14.982 18.1876C13.4178 18.1876 12.1642 18.6712 11.2321 19.6493C10.2893 20.6273 9.82863 22.0782 9.82863 24.0235V36.7376H3.77531V13.2008H9.81792V15.8339C11.2857 13.6307 13.6213 12.5345 16.814 12.5345Z" fill="#004C4C"/>
<path d="M50.8298 33.7929C48.4192 36.1896 45.4836 37.3933 42.0123 37.3933C38.541 37.3933 35.6054 36.1896 33.2162 33.7929C30.8271 31.3962 29.6271 28.4514 29.6271 24.9693C29.6271 21.4871 30.8271 18.5423 33.2162 16.1457C35.6054 13.749 38.541 12.5453 42.0123 12.5453C45.4836 12.5453 48.4299 13.749 50.8298 16.1457C53.2404 18.5423 54.4403 21.4871 54.4403 24.9693C54.4403 28.4407 53.2404 31.3855 50.8298 33.7929ZM37.4804 29.6229C38.6803 30.8481 40.191 31.4607 42.0123 31.4607C43.8229 31.4607 45.3443 30.8481 46.5657 29.6229C47.7871 28.3977 48.3977 26.8501 48.3977 24.9585C48.3977 23.0777 47.7871 21.5194 46.5657 20.2942C45.3443 19.069 43.8229 18.4563 42.0123 18.4563C40.2017 18.4563 38.691 19.069 37.4804 20.2942C36.2804 21.5194 35.6697 23.067 35.6697 24.9585C35.6697 26.8501 36.2697 28.3977 37.4804 29.6229Z" fill="#004C4C"/>
<path d="M78.708 33.7929C76.2974 36.1896 73.3618 37.3933 69.8905 37.3933C66.4192 37.3933 63.4837 36.1896 61.0945 33.7929C58.7053 31.3962 57.5053 28.4514 57.5053 24.9693C57.5053 21.4871 58.7053 18.5423 61.0945 16.1457C63.4837 13.749 66.4192 12.5453 69.8905 12.5453C73.3618 12.5453 76.3081 13.749 78.708 16.1457C81.1186 18.5423 82.3186 21.4871 82.3186 24.9693C82.3186 28.4407 81.1079 31.3855 78.708 33.7929ZM65.3586 29.6229C66.5585 30.8481 68.0692 31.4607 69.8905 31.4607C71.7012 31.4607 73.2225 30.8481 74.4439 29.6229C75.6653 28.3977 76.276 26.8501 76.276 24.9585C76.276 23.0777 75.6653 21.5194 74.4439 20.2942C73.2225 19.069 71.7012 18.4563 69.8905 18.4563C68.0799 18.4563 66.5692 19.069 65.3586 20.2942C64.1586 21.5194 63.5479 23.067 63.5479 24.9585C63.5479 26.8501 64.1479 28.3977 65.3586 29.6229Z" fill="#004C4C"/>
<path d="M108.224 36.727H101.185L92.6464 26.0333V36.727H86.5931V3.77537H92.6464V23.5936L100.714 13.2009H107.946L98.5176 24.8296L108.224 36.727Z" fill="#004C4C"/>
</svg>
