<svg width="114" height="22" viewBox="0 0 114 22" fill="none" xmlns="http://www.w3.org/2000/svg">
<path d="M12.9896 2.6355C11.8676 2.6355 10.7914 3.08217 9.99802 3.87724C9.2046 4.67232 8.75886 5.75067 8.75886 6.87508V9.2355H6.49482C6.38115 9.2355 6.289 9.32784 6.289 9.44175V12.5584C6.289 12.6723 6.38115 12.7647 6.49482 12.7647H8.75886V19.1584C8.75886 19.2723 8.851 19.3647 8.96468 19.3647H12.0749C12.1885 19.3647 12.2807 19.2723 12.2807 19.1584V12.7647H14.5648C14.6592 12.7647 14.7415 12.7003 14.7644 12.6084L15.542 9.49177C15.5745 9.3616 15.4762 9.2355 15.3423 9.2355H12.2807V6.87508C12.2807 6.68667 12.3554 6.50597 12.4883 6.37274C12.6213 6.23951 12.8016 6.16466 12.9896 6.16466H15.368C15.4817 6.16466 15.5738 6.07232 15.5738 5.95842V2.84175C15.5738 2.72784 15.4817 2.6355 15.368 2.6355H12.9896Z" fill="#303635"/>
<path d="M56.8815 8.02092C55.2396 8.02092 53.9085 9.35473 53.9085 11.0001C53.9085 12.6454 55.2396 13.9792 56.8815 13.9792C58.5234 13.9792 59.8545 12.6454 59.8545 11.0001C59.8545 9.35473 58.5234 8.02092 56.8815 8.02092Z" fill="#303635"/>
<path fill-rule="evenodd" clip-rule="evenodd" d="M52.0969 2.82476C55.2511 2.4715 58.512 2.4715 61.6662 2.82476C63.4027 3.01925 64.8034 4.39038 65.0072 6.13668C65.3844 9.36794 65.3844 12.6322 65.0072 15.8635C64.8034 17.6098 63.4027 18.9809 61.6662 19.1754C58.512 19.5287 55.2511 19.5287 52.0969 19.1754C50.3603 18.9809 48.9596 17.6098 48.7558 15.8635C48.3787 12.6322 48.3787 9.36794 48.7558 6.13668C48.9596 4.39038 50.3603 3.01925 52.0969 2.82476ZM61.4553 5.50008C60.9501 5.50008 60.5406 5.91049 60.5406 6.41675C60.5406 6.92301 60.9501 7.33342 61.4553 7.33342C61.9605 7.33342 62.3701 6.92301 62.3701 6.41675C62.3701 5.91049 61.9605 5.50008 61.4553 5.50008ZM52.5364 11.0001C52.5364 8.59534 54.4818 6.64592 56.8815 6.64592C59.2813 6.64592 61.2266 8.59534 61.2266 11.0001C61.2266 13.4048 59.2813 15.3542 56.8815 15.3542C54.4818 15.3542 52.5364 13.4048 52.5364 11.0001Z" fill="#303635"/>
<path d="M111.759 5.70838C111.812 5.63434 111.734 5.53875 111.649 5.57168C111.047 5.80573 110.417 5.96364 109.775 6.04147C110.49 5.61327 111.042 4.96145 111.348 4.18974C111.379 4.11112 111.293 4.04092 111.219 4.08182C110.555 4.44971 109.838 4.71462 109.093 4.86719C109.062 4.87358 109.03 4.86294 109.008 4.8398C108.449 4.24885 107.713 3.85538 106.911 3.71941C106.092 3.58059 105.251 3.71804 104.518 4.11022C103.786 4.5024 103.204 5.12712 102.864 5.8864C102.541 6.60833 102.453 7.41308 102.613 8.18595C102.625 8.24591 102.578 8.30253 102.517 8.29873C101.068 8.20855 99.6525 7.82233 98.3572 7.16334C97.0652 6.50602 95.921 5.59159 94.9945 4.47644C94.9534 4.42694 94.8754 4.43335 94.8455 4.49032C94.5572 5.03855 94.4062 5.6496 94.4066 6.27063C94.4055 6.88882 94.5569 7.4977 94.8473 8.04307C95.1378 8.58843 95.5583 9.05337 96.0715 9.39647C95.5273 9.38163 94.9937 9.24681 94.5084 9.00237C94.4459 8.97086 94.3708 9.01572 94.3741 9.08578C94.4119 9.90092 94.7106 10.7193 95.2275 11.3471C95.7775 12.0152 96.541 12.4725 97.3888 12.6415C97.0624 12.741 96.7236 12.7935 96.3825 12.7973C96.1969 12.7951 96.0116 12.7814 95.8277 12.7562C95.7596 12.7469 95.7039 12.8118 95.7278 12.8764C95.9806 13.5616 96.4273 14.1595 97.0147 14.5959C97.6426 15.0625 98.4001 15.3214 99.1817 15.3365C97.8619 16.3771 96.2324 16.9451 94.553 16.9498C94.3804 16.9504 94.2079 16.9448 94.0359 16.933C93.9389 16.9264 93.8943 17.0559 93.9779 17.1056C95.6142 18.0786 97.4844 18.593 99.3921 18.5906C100.801 18.6053 102.198 18.3386 103.502 17.806C104.807 17.2735 105.992 16.4859 106.989 15.4891C107.987 14.4923 108.776 13.3064 109.31 12.0006C109.845 10.6949 110.115 9.29538 110.104 7.88396V7.44412C110.104 7.41518 110.118 7.38796 110.141 7.37053C110.761 6.90106 111.307 6.34058 111.759 5.70838Z" fill="#303635"/>
</svg>
