<svg width="1972" height="487" viewBox="0 0 1972 487" fill="none" xmlns="http://www.w3.org/2000/svg">
<path opacity="0.8" d="M1.28202 14.1913L0 81.7039C0 81.7039 189.14 56.0013 422.183 128.235C540.413 164.852 660.951 238.266 764.581 367.626C988.892 647.604 1133.87 364.251 1333.97 235.989C1406.15 189.666 1486.56 163.283 1580.7 195.581C1811.58 274.827 1903.24 245.861 1941.9 216.91C1962 201.857 1967.77 186.805 1971.34 186.944L1972 151.758C1972 151.758 1946.89 292.587 1571.73 144.579C1408.48 80.2043 1288.49 179.946 1179.48 279.673C1037.95 409.2 914.905 538.712 739.568 308.833C539.559 46.6423 290.69 0 139.028 0C55.3689 0 1.28202 14.1913 1.28202 14.1913Z" fill="#EEF0EE"/>
</svg>
